<?xml version="1.0" standalone="no"?>
<!DOCTYPE svg PUBLIC "-//W3C//DTD SVG 1.1//EN" "http://www.w3.org/Graphics/SVG/1.1/DTD/svg11.dtd" >
<svg>
<metadata>
Created by FontForge 20110222 at Mon Feb  9 10:06:41 2015
 By deploy user
251 Dutch Design: Albert-Jan Pool, 1995. Published by FontShop International FontFont release 15
</metadata>
<defs>
<font id="DINBek-Regular" horiz-adv-x="522" >
  <font-face 
    font-family="DINBek"
    font-weight="400"
    font-stretch="normal"
    units-per-em="1000"
    panose-1="2 0 5 3 4 0 0 2 0 3"
    ascent="800"
    descent="-200"
    x-height="492"
    cap-height="712"
    bbox="-32 -226 1115 985"
    underline-thickness="51"
    underline-position="-89"
    unicode-range="U+0001-2122"
  />
<missing-glyph horiz-adv-x="1000" 
 />
    <glyph glyph-name=".notdef" horiz-adv-x="1000" 
 />
    <glyph glyph-name="eth" horiz-adv-x="530" 
d="M465 244q0 -57 -11 -107t-49 -88q-25 -26 -60 -40.5t-80 -14.5t-80 14.5t-60 40.5q-38 38 -48.5 88t-10.5 107q0 56 11 106.5t48 87.5q47 48 122 53q19 1 38.5 -0.5t36.5 -9.5l-58 99h-116v52h88l-47 82h75l47 -82h82v-52h-54l63 -111q20 -35 32.5 -62t19 -52.5t9 -51.5
t2.5 -59zM393 244q0 21 -1 42t-5 40.5t-11.5 37.5t-21.5 31q-36 36 -89 36q-52 0 -88 -36q-13 -13 -21 -31t-12 -37.5t-5 -40.5t-1 -42q0 -42 6 -82.5t33 -67.5q36 -36 88 -36q53 0 89 36q27 27 33 67.5t6 82.5z" />
    <glyph glyph-name="Lslash" horiz-adv-x="582" 
d="M552 0h-440v289l-73 -46v67l73 46v356h77v-308l154 98v-66l-154 -98v-270h363v-68v0z" />
    <glyph glyph-name="lslash" horiz-adv-x="315" 
d="M226 0q-64 0 -95 37.5t-31 93.5v211l-63 -39v62l63 39v308h72v-264l81 50v-62l-81 -50v-252q0 -36 14 -54t52 -18h40v-62h-52z" />
    <glyph glyph-name="Scaron" horiz-adv-x="588" 
d="M532 196q0 -47 -17.5 -84.5t-50 -63.5t-77.5 -40t-101 -14q-80 0 -137 22t-107 72l52 52q44 -44 89 -61t105 -17q78 0 123 34.5t45 97.5q0 28 -8.5 51t-25.5 38t-35.5 21.5t-57.5 12.5l-83 13q-85 14 -131 54q-54 48 -54 133q0 45 16 82.5t45.5 63.5t71.5 40.5t95 14.5
q68 0 117 -18.5t95 -59.5l-49 -49q-33 30 -71 45.5t-95 15.5q-72 0 -111 -36t-39 -96q0 -54 32 -82q17 -14 42.5 -24t53.5 -15l78 -12q50 -7 79 -18.5t51 -31.5q60 -51 60 -141zM448 934l-125 -153h-68l-125 153h69l90 -105l90 105h69v0z" />
    <glyph glyph-name="scaron" horiz-adv-x="496" 
d="M445 144q0 -36 -14.5 -63.5t-41 -47t-63 -29.5t-81.5 -10q-63 0 -112 16t-90 55l48 48q29 -31 68 -44t85 -13q61 0 96 21.5t35 65.5q0 32 -19.5 50t-62.5 22l-81 7q-72 6 -109.5 38.5t-37.5 93.5q0 34 13.5 60.5t37.5 45t57.5 28.5t72.5 10q53 0 98.5 -13t78.5 -40
l-47 -47q-26 20 -59.5 29.5t-71.5 9.5q-54 0 -82 -21.5t-28 -59.5q0 -32 19.5 -50t66.5 -22l79 -7q32 -3 59 -11t46 -24t29.5 -39.5t10.5 -58.5zM406 747l-125 -153h-68l-125 153h69l90 -105l90 105h69v0z" />
    <glyph glyph-name="Yacute" horiz-adv-x="515" 
d="M506 712l-210 -418v-294h-76v294l-212 418h82l168 -341l166 341h82v0zM382 934l-108 -153h-66l88 153h86v0z" />
    <glyph glyph-name="yacute" horiz-adv-x="446" 
d="M212 -119q-14 -39 -35 -58q-20 -19 -45 -26.5t-51 -7.5h-31v64h22q19 0 31.5 3t21.5 10.5t15.5 19t12.5 28.5l35 96l-177 482h78l135 -395l134 395h78zM349 747l-108 -153h-66l88 153h86v0z" />
    <glyph glyph-name="Thorn" horiz-adv-x="642" 
d="M588 359q0 -48 -16 -86.5t-45 -66t-69.5 -42t-89.5 -14.5h-189v-150h-76v712h76v-143h189q49 0 89.5 -15t69.5 -42t45 -66t16 -87zM512 359q0 71 -42 106t-109 35h-182v-282h182q67 0 109 35t42 106z" />
    <glyph glyph-name="thorn" horiz-adv-x="546" 
d="M481 246q0 -29 -2.5 -58t-9 -56.5t-18 -51.5t-30.5 -43q-20 -20 -51 -31.5t-69 -11.5q-41 0 -75 13t-64 51v-278h-72v932h72v-277q30 38 64 50.5t75 12.5q38 0 69 -11.5t51 -31.5q19 -19 30.5 -43t18 -51.5t9 -56.5t2.5 -58zM409 246q0 36 -4 70t-17 60t-37.5 42
t-64.5 16t-64.5 -16t-37.5 -42t-17.5 -60t-4.5 -70t4.5 -70t17.5 -60t37.5 -42t64.5 -16t64.5 16t37.5 42t17 60t4 70z" />
    <glyph glyph-name="Zcaron" horiz-adv-x="556" 
d="M499 0h-442v72l356 572h-342v68h428v-64l-359 -580h359v-68v0zM443 934l-125 -153h-68l-125 153h69l90 -105l90 105h69v0z" />
    <glyph glyph-name="zcaron" horiz-adv-x="459" 
d="M407 0h-357v62l274 366h-259v64h342v-61l-275 -367h275v-64v0zM396 747l-125 -153h-68l-125 153h69l90 -105l90 105h69v0z" />
    <glyph glyph-name="onehalf" horiz-adv-x="790" 
d="M496 0v52l165 202q12 15 17.5 28t5.5 30q0 30 -17 48.5t-48 18.5q-26 0 -45.5 -15t-19.5 -52h-58q0 54 34.5 86.5t88.5 32.5t88.5 -32t34.5 -87q0 -28 -9.5 -48t-29.5 -44l-137 -168h176v-52h-246zM221 0h-60l333 712h60zM126 285v363l-83 -73v66l83 71h57v-427h-57z" />
    <glyph glyph-name="onequarter" horiz-adv-x="777" 
d="M737 64h-47v-64h-56v64h-172v53l151 310h62l-150 -310h109v105h56v-105h47v-53v0zM566 712l-333 -712h-60l333 712h60v0zM183 285h-57v363l-83 -73v66l83 71h57v-427v0z" />
    <glyph glyph-name="onesuperior" horiz-adv-x="261" 
d="M183 285h-57v363l-83 -73v66l83 71h57v-427v0z" />
    <glyph glyph-name="threequarters" horiz-adv-x="822" 
d="M735 64v-64h-56v64h-172v53l151 310h62l-151 -310h110v105h56v-105h47v-53h-47zM285 0h-60l334 712h60zM308 405q0 -31 -10 -54t-27.5 -39t-41 -24t-50.5 -8q-25 0 -48.5 7t-41.5 21.5t-29 37t-12 53.5h58q2 -35 23.5 -51t49.5 -16q31 0 51.5 19t20.5 54q0 34 -18.5 53.5
t-56.5 19.5h-9v50h9q35 0 51.5 18.5t16.5 49.5q0 34 -19.5 51t-46.5 17q-29 0 -47 -17t-20 -46h-57q3 54 38 84.5t86 30.5q54 0 88.5 -32.5t34.5 -86.5q0 -35 -14 -57.5t-40 -34.5q29 -12 45 -36t16 -64z" />
    <glyph glyph-name="threesuperior" horiz-adv-x="356" 
d="M308 405q0 -31 -10 -54t-27.5 -39t-41 -24t-50.5 -8q-25 0 -48.5 7t-41.5 21.5t-29 37t-12 53.5h58q2 -35 23.5 -51t49.5 -16q31 0 51.5 19t20.5 54q0 34 -18.5 53.5t-56.5 19.5h-9v50h9q35 0 51.5 18.5t16.5 49.5q0 34 -19.5 51t-46.5 17q-29 0 -47 -17t-20 -46h-57
q3 54 38 84.5t86 30.5q54 0 88.5 -32.5t34.5 -86.5q0 -35 -14 -57.5t-40 -34.5q29 -12 45 -36t16 -64z" />
    <glyph glyph-name="twosuperior" horiz-adv-x="342" 
d="M48 285v52l165 202q12 15 17.5 28t5.5 30q0 30 -17 48.5t-48 18.5q-26 0 -45.5 -15t-19.5 -52h-58q0 54 34.5 86.5t88.5 32.5t88.5 -32t34.5 -87q0 -28 -9.5 -48t-29.5 -44l-138 -168h177v-52h-246z" />
    <glyph glyph-name="brokenbar" horiz-adv-x="335" 
d="M199 436h-72v350h72v-350v0zM199 -74h-72v350h72v-350v0z" />
    <glyph glyph-name="minus" 
d="M470 236h-418v67h418v-67v0z" />
    <glyph glyph-name="multiply" 
d="M457 119l-45 -45l-151 151l-151 -151l-45 45l151 151l-151 151l45 45l151 -152l151 152l45 -45l-152 -151l152 -151v0z" />
    <glyph glyph-name="space" unicode=" " horiz-adv-x="249" 
 />
    <glyph glyph-name="exclam" unicode="!" horiz-adv-x="316" 
d="M215 712l-11 -512h-62l-10 512h83v0zM216 0h-86v84h86v-84v0z" />
    <glyph glyph-name="quotedbl" unicode="&#x22;" horiz-adv-x="423" 
d="M335 542h-79v170h79v-170v0zM167 542h-79v170h79v-170v0z" />
    <glyph glyph-name="numbersign" unicode="#" horiz-adv-x="653" 
d="M602 432h-96l-23 -141h89v-64h-99l-36 -227h-74l36 227h-160l-35 -227h-74l36 227h-89v64h100l23 141h-92v66h101l34 215h75l-35 -215h159l34 215h73l-34 -215h87v-66v0zM432 432h-159l-23 -141h159l23 141v0z" />
    <glyph glyph-name="dollar" unicode="$" horiz-adv-x="596" 
d="M540 196q0 -43 -15.5 -78.5t-44 -61.5t-68.5 -41.5t-90 -18.5v-110h-60v108q-71 3 -122 25t-98 69l52 52q40 -40 80.5 -57.5t91.5 -19.5v265l-20 3q-41 4 -75 19.5t-55 33.5q-55 49 -55 133q0 85 53.5 138.5t147.5 61.5v89h60v-89q58 -3 101 -21.5t85 -55.5l-49 -49
q-29 26 -61.5 41.5t-78.5 18.5v-259l31 -4q50 -8 78 -19.5t51 -31.5q29 -25 45 -60.5t16 -80.5zM266 651q-63 -5 -96.5 -40t-33.5 -91q0 -54 32 -82q21 -17 46.5 -26t51.5 -13v252zM464 194q0 28 -9 51t-26 38q-25 22 -51.5 27t-58.5 10v-257q68 5 106.5 39t38.5 92z" />
    <glyph glyph-name="percent" unicode="%" horiz-adv-x="833" 
d="M769 128q0 -62 -38.5 -98.5t-96.5 -36.5q-59 0 -97 36.5t-38 98.5v105q0 62 38 98.5t97 36.5q58 0 96.5 -36.5t38.5 -98.5v-105v0zM712 231q0 40 -18.5 63.5t-59.5 23.5q-42 0 -60 -23t-18 -64v-101q0 -41 18 -64t60 -23q41 0 59.5 23.5t18.5 63.5v101zM280 0h-60
l334 712h60zM335 479q0 -61 -38.5 -97.5t-96.5 -36.5q-59 0 -97 36.5t-38 97.5v105q0 62 38 98.5t97 36.5q58 0 96.5 -36.5t38.5 -98.5v-105v0zM278 582q0 40 -18.5 63.5t-59.5 23.5q-42 0 -60 -23t-18 -64v-101q0 -41 18.5 -63.5t59.5 -22.5t59.5 23t18.5 63v101z" />
    <glyph glyph-name="ampersand" unicode="&#x26;" horiz-adv-x="739" 
d="M576 0l-64 78q-11 -10 -29 -24.5t-44 -27.5t-60 -22.5t-77 -9.5q-52 0 -93.5 15t-70.5 42t-45 65.5t-16 84.5q0 40 13 71t34.5 56t49.5 46t57 40q-13 16 -26.5 33t-25 36t-18.5 40.5t-7 45.5q0 32 11.5 59t32.5 47t50 31.5t63 11.5q33 0 61.5 -11.5t49.5 -31.5
t32.5 -47.5t11.5 -59.5q0 -43 -22.5 -73.5t-56.5 -53.5q-10 -6 -20 -13q-8 -6 -17 -12t-16 -11l182 -219q11 17 18.5 33t12 35t7 42t2.5 53h72q-1 -68 -16 -122t-50 -96l109 -131h-95zM395 568q0 36 -24 60.5t-60 24.5q-37 0 -59.5 -23.5t-22.5 -59.5q0 -25 14.5 -49.5
t49.5 -67.5q5 3 11.5 7t12.5 9l14 10q25 17 44.5 37.5t19.5 51.5zM273 366q-23 -16 -45 -32t-39 -35t-27.5 -42.5t-10.5 -53.5q0 -32 11 -58t31 -45t47.5 -29t60.5 -10q40 0 81 14t87 55z" />
    <glyph glyph-name="quotesingle" unicode="'" horiz-adv-x="255" 
d="M167 542h-79v170h79v-170v0z" />
    <glyph glyph-name="parenleft" unicode="(" horiz-adv-x="298" 
d="M185 -94q-24 24 -41 42.5t-31 43.5t-17.5 51t-3.5 52v522q0 26 3.5 52t17.5 51t31 43.5t41 42.5l49 -49q-17 -17 -30.5 -31t-23.5 -34q-16 -32 -16 -81v-510q0 -49 16 -81q10 -20 23.5 -34t30.5 -31z" />
    <glyph glyph-name="parenright" unicode=")" horiz-adv-x="298" 
d="M205 95q0 -26 -3 -52t-17 -51t-31 -43.5t-41 -42.5l-51 51l31 31t24 34q8 15 11 35t3 44v510q0 24 -3 44t-11 35q-10 20 -24 34l-31 31l51 51q24 -24 41 -42.5t31 -43.5t17 -51t3 -52v-522v0z" />
    <glyph glyph-name="asterisk" unicode="*" horiz-adv-x="474" 
d="M407 472l-28 -49l-117 71l4 -137h-58l4 137l-116 -71l-29 49l120 65l-120 66l29 48l116 -71l-4 137h58l-4 -137l117 71l28 -48l-120 -66l120 -65v0z" />
    <glyph glyph-name="plus" unicode="+" 
d="M470 234h-175v-176h-67v176h-176v67h176v174h67v-174h175v-67v0z" />
    <glyph glyph-name="comma" unicode="," horiz-adv-x="264" 
d="M176 -65l-88 -79v232h88v-153v0z" />
    <glyph glyph-name="hyphen" unicode="-" horiz-adv-x="426" 
d="M350 236h-274v67h274v-67v0z" />
    <glyph glyph-name="period" unicode="." horiz-adv-x="270" 
d="M182 0h-94v94h94v-94v0z" />
    <glyph glyph-name="slash" unicode="/" horiz-adv-x="355" 
d="M356 786l-285 -860h-71l285 860h71v0z" />
    <glyph glyph-name="zero" unicode="0" 
d="M456 190q0 -44 -15 -80.5t-41 -62t-61.5 -39.5t-77.5 -14t-77.5 14t-61.5 39.5t-41 62t-15 80.5v332q0 44 15 80.5t41 62t61.5 39.5t77.5 14t77.5 -14t61.5 -39.5t41 -62t15 -80.5v-332v0zM384 518q0 59 -31.5 97.5t-91.5 38.5t-91.5 -38.5t-31.5 -97.5v-324
q0 -59 31.5 -97.5t91.5 -38.5t91.5 38.5t31.5 97.5v324z" />
    <glyph glyph-name="one" unicode="1" 
d="M330 0h-72v632l-133 -117v82l133 115h72v-712v0z" />
    <glyph glyph-name="two" unicode="2" 
d="M68 0v64l281 357q20 26 30 51t10 54q0 58 -32.5 93t-91.5 35q-25 0 -47.5 -7t-39.5 -23t-27 -40t-10 -59h-72q0 42 14 77.5t39.5 61t61.5 40t81 14.5q44 0 80 -13.5t62 -38.5t40 -60.5t14 -79.5q0 -43 -14 -74.5t-43 -69.5l-249 -318h306v-64h-393z" />
    <glyph glyph-name="three" unicode="3" 
d="M460 194q0 -49 -16.5 -86.5t-44.5 -63t-66 -38.5t-82 -13q-42 0 -79 11t-65 34.5t-45.5 59t-19.5 83.5h72q2 -33 14.5 -56.5t31 -38.5t42.5 -22t49 -7q58 0 97.5 36t39.5 102q0 65 -33.5 101.5t-106.5 36.5h-15v63h15q66 0 96.5 34.5t30.5 94.5q0 64 -36 97t-88 33
q-57 0 -90 -32t-38 -87h-72q3 43 19.5 77t43 57.5t62 36t75.5 12.5q44 0 80 -14t61.5 -39t40 -60.5t14.5 -79.5q0 -114 -96 -158q109 -41 109 -174z" />
    <glyph glyph-name="four" unicode="4" 
d="M482 113h-87v-113h-71v113h-284v65l257 534h77l-257 -534h207v202h71v-202h87v-65v0z" />
    <glyph glyph-name="five" unicode="5" 
d="M462 235q0 -54 -9.5 -102.5t-47.5 -86.5q-25 -25 -59.5 -39t-82.5 -14q-47 0 -83.5 14t-59.5 37q-23 24 -35 55t-15 69h72q7 -54 35.5 -82.5t85.5 -28.5q55 0 88 33q14 14 22 31t11.5 36t4.5 39t1 39q0 33 -4.5 64t-17 55t-36 39t-62.5 15q-47 0 -77 -19t-41 -51h-65v374
h360v-64h-295v-226q21 23 53.5 36t74.5 13q40 0 71 -12t52 -33q20 -19 31.5 -42t17.5 -48t8 -50.5t2 -50.5z" />
    <glyph glyph-name="six" unicode="6" 
d="M460 205q0 -45 -14 -84t-39.5 -67t-62 -44t-81.5 -16t-82 14.5t-62.5 41.5t-39.5 65t-14 84q0 38 11 76.5t34 83.5l175 353h74l-159 -320q33 15 75 15t76 -15t58 -42t37.5 -64t13.5 -81zM388 202q0 30 -8 56t-24 45.5t-39.5 31t-54.5 11.5q-57 0 -91 -39t-34 -105
t34 -105t91 -39t91.5 39t34.5 105z" />
    <glyph glyph-name="seven" unicode="7" 
d="M471 648l-247 -648h-76l247 648h-248v-112h-71v176h395v-64v0z" />
    <glyph glyph-name="eight" unicode="8" 
d="M471 196q0 -45 -16 -82t-44.5 -64t-67 -41.5t-82.5 -14.5t-82.5 14.5t-67 41.5t-44.5 64t-16 82q0 63 31 105t76 68q-42 24 -67.5 63t-25.5 95q0 42 14.5 77t41 60.5t62.5 39.5t78 14t78 -14t62.5 -39.5t41 -60.5t14.5 -77q0 -56 -25 -95t-67 -63q45 -26 75.5 -68
t30.5 -105zM385 526q0 56 -34.5 92t-89.5 36t-89.5 -36t-34.5 -92q0 -57 34.5 -92t89.5 -35t89.5 35t34.5 92zM399 197q0 30 -10.5 55t-29 44t-44 29.5t-54.5 10.5t-54.5 -10.5t-44 -29.5t-29 -44t-10.5 -55t10.5 -55t29 -44t44 -29.5t54.5 -10.5t54.5 10.5t44 29.5t29 44
t10.5 55z" />
    <glyph glyph-name="nine" unicode="9" 
d="M457 513q0 -38 -11 -76.5t-34 -83.5l-175 -353h-75l160 320q-33 -15 -76 -15q-42 0 -76 15t-58 42t-37 64t-13 81q0 45 14 84t39.5 67t62 44t81.5 16t82 -14.5t62.5 -41.5t39.5 -65t14 -84zM385 510q0 66 -34.5 105t-91.5 39t-91 -39t-34 -105q0 -30 8 -56t24 -45.5
t39 -31t54 -11.5q57 0 91.5 39t34.5 105z" />
    <glyph glyph-name="colon" unicode=":" horiz-adv-x="297" 
d="M209 301h-94v94h94v-94v0zM209 0h-94v94h94v-94v0z" />
    <glyph glyph-name="semicolon" unicode=";" horiz-adv-x="297" 
d="M209 301h-94v94h94v-94v0zM205 -65l-88 -79v232h88v-153v0z" />
    <glyph glyph-name="less" unicode="&#x3c;" horiz-adv-x="1027" 
d="M972 234h-789l365 -364h-94l-399 399l399 399h94l-365 -364h789v-70v0z" />
    <glyph glyph-name="equal" unicode="=" 
d="M470 320h-418v67h418v-67v0zM470 151h-418v66h418v-66v0z" />
    <glyph glyph-name="greater" unicode="&#x3e;" horiz-adv-x="1027" 
d="M972 269l-399 -399h-94l365 364h-789v70h789l-365 364h94l399 -399v0z" />
    <glyph glyph-name="question" unicode="?" horiz-adv-x="497" 
d="M451 536q0 -35 -12.5 -63.5t-32.5 -57.5l-82 -118q-9 -14 -13.5 -30t-4.5 -28v-39h-72v40q0 29 7.5 50t23.5 44l81 117q14 21 23.5 40t9.5 45q0 51 -32 84.5t-83 33.5q-27 0 -48.5 -9.5t-36.5 -26t-23 -38t-8 -45.5h-72q0 38 14 71.5t39.5 58.5t60 39t74.5 14
q39 0 73.5 -13.5t59.5 -37.5t39.5 -57.5t14.5 -73.5zM227 0v84h86v-84h-86z" />
    <glyph glyph-name="at" unicode="@" horiz-adv-x="713" 
d="M572 0v55q-25 -32 -56.5 -47t-77.5 -15q-42 0 -77.5 16t-58.5 45q-25 32 -34.5 74t-9.5 110q0 66 9 109t32 74q22 29 58 45.5t80 16.5t76 -15.5t58 -47.5v78q0 40 -8.5 65.5t-30.5 48.5q-21 21 -48.5 30.5t-62.5 9.5h-130q-35 0 -61 -9t-48 -31q-23 -23 -31.5 -47.5
t-8.5 -66.5v-337q0 -24 2.5 -41t9 -30.5t17.5 -25t28 -24.5l-49 -49q-23 17 -38 33t-24 35t-12.5 43.5t-3.5 57.5v336q0 104 56 161q55 56 154 56h148q98 0 154 -56q57 -57 57 -161v-497zM571 238q0 35 -4 68t-17 58.5t-37 41t-63 15.5t-63 -15.5t-37 -41t-17 -58.5t-4 -68
t4 -68t17 -58.5t37 -41t63 -15.5t63 15.5t37 41t17 58.5t4 68z" />
    <glyph glyph-name="A" unicode="A" horiz-adv-x="611" 
d="M599 0h-81l-57 161h-311l-57 -161h-81l262 712h64l261 -712v0zM439 227l-132 376l-134 -376h266v0z" />
    <glyph glyph-name="B" unicode="B" horiz-adv-x="668" 
d="M592 197q0 -48 -15.5 -85t-43.5 -62t-67 -37.5t-86 -12.5h-277v712h268q47 0 85.5 -13t66 -37.5t43 -59.5t15.5 -80q0 -57 -30 -98t-75 -58q51 -19 83.5 -62t32.5 -107zM505 521q0 32 -11 55t-29.5 38t-44 22.5t-55.5 7.5h-186v-247h186q30 0 55.5 7.5t44 22.5t29.5 38.5
t11 55.5zM516 199q0 60 -38.5 95t-104.5 35h-194v-261h194q66 0 104.5 35.5t38.5 95.5z" />
    <glyph glyph-name="C" unicode="C" horiz-adv-x="637" 
d="M572 206q-9 -50 -30.5 -89.5t-54 -66.5t-73.5 -41.5t-89 -14.5q-53 0 -99.5 19t-82.5 55q-25 25 -38.5 52t-20 60.5t-7.5 76t-1 99.5t1 99.5t7.5 76t20 60.5t38.5 52q36 36 82.5 55t99.5 19q48 0 89 -14.5t73.5 -41.5t54 -66.5t30.5 -89.5h-78q-14 66 -58 105t-111 39
q-35 0 -67.5 -13t-55.5 -37q-17 -17 -27 -36.5t-15 -47t-6.5 -66t-1.5 -94.5t1.5 -94.5t6.5 -66t15 -47t27 -36.5q23 -24 55.5 -37t67.5 -13q67 0 112 39t59 105h76v0z" />
    <glyph glyph-name="D" unicode="D" horiz-adv-x="673" 
d="M597 364q0 -37 -0.5 -78t-6.5 -80.5t-20.5 -75.5t-42.5 -64q-32 -32 -78 -49t-102 -17h-244v712h244q56 0 102 -17t78 -49q28 -28 42.5 -61.5t20.5 -70t6.5 -75t0.5 -75.5zM521 364q0 33 -0.5 65.5t-4.5 62t-14 55.5t-28 45q-28 29 -63 40.5t-77 11.5h-155v-576h155
q42 0 77 11.5t63 40.5q18 19 28 47.5t14 61t4.5 67.5t0.5 68z" />
    <glyph glyph-name="E" unicode="E" horiz-adv-x="600" 
d="M545 0h-442v712h442v-68h-366v-251h312v-68h-312v-257h366v-68v0z" />
    <glyph glyph-name="F" unicode="F" horiz-adv-x="580" 
d="M545 644h-366v-262h312v-68h-312v-314h-76v712h442v-68v0z" />
    <glyph glyph-name="G" unicode="G" horiz-adv-x="650" 
d="M576 260q0 -62 -14 -105.5t-47 -78.5q-38 -41 -86.5 -61.5t-103.5 -20.5q-53 0 -99.5 19t-82.5 55q-25 25 -38.5 52t-20 60.5t-7.5 76t-1 99.5t1 99.5t7.5 76t20 60.5t38.5 52q74 74 182 74q51 0 93.5 -15.5t74.5 -44t52.5 -67.5t28.5 -86h-76q-15 68 -60.5 106.5
t-112.5 38.5q-35 0 -67.5 -13.5t-55.5 -37.5q-17 -17 -27 -36.5t-15 -46.5t-6.5 -65.5t-1.5 -94.5t1.5 -94.5t6.5 -66t15 -47t27 -36.5q23 -24 55.5 -37t67.5 -13q39 0 74.5 15.5t60.5 45.5q22 26 31 56.5t9 72.5v54h-175v67h251v-113v0z" />
    <glyph glyph-name="H" unicode="H" horiz-adv-x="696" 
d="M593 0h-76v325h-338v-325h-76v712h76v-319h338v319h76v-712v0z" />
    <glyph glyph-name="I" unicode="I" horiz-adv-x="282" 
d="M179 0h-76v712h76v-712v0z" />
    <glyph glyph-name="J" unicode="J" horiz-adv-x="501" 
d="M408 216q0 -51 -16.5 -92.5t-46 -70t-70 -44t-89.5 -15.5q-51 0 -90.5 15.5t-72.5 48.5l51 51q10 -10 20.5 -18.5t23.5 -15t29.5 -10t38.5 -3.5q70 0 108 42.5t38 121.5v486h76v-496v0z" />
    <glyph glyph-name="K" unicode="K" horiz-adv-x="650" 
d="M636 0h-90l-217 379l-150 -180v-199h-76v712h76v-409l332 409h93l-224 -275l256 -437v0z" />
    <glyph glyph-name="L" unicode="L" horiz-adv-x="573" 
d="M543 0h-440v712h76v-644h364v-68v0z" />
    <glyph glyph-name="M" unicode="M" horiz-adv-x="816" 
d="M713 0h-76v541l-195 -429h-65l-198 429v-541h-76v712h76l232 -505l226 505h76v-712v0z" />
    <glyph glyph-name="N" unicode="N" horiz-adv-x="732" 
d="M629 0h-72l-378 571v-571h-76v712h72l378 -569v569h76v-712v0z" />
    <glyph glyph-name="O" unicode="O" horiz-adv-x="650" 
d="M574 356q0 -57 -1 -99.5t-7.5 -76t-20 -60.5t-38.5 -52q-36 -36 -82 -55t-100 -19q-108 0 -182 74q-25 25 -38.5 52t-20 60.5t-7.5 76t-1 99.5t1 99.5t7.5 76t20 60.5t38.5 52q74 74 182 74t182 -74q25 -25 38.5 -52t20 -60.5t7.5 -76t1 -99.5zM498 356q0 56 -1.5 94.5
t-6.5 65.5t-15 46.5t-27 36.5q-23 24 -55.5 37.5t-67.5 13.5t-67.5 -13.5t-55.5 -37.5q-17 -17 -27 -36.5t-15 -46.5t-6.5 -65.5t-1.5 -94.5t1.5 -94.5t6.5 -65.5t15 -46.5t27 -36.5q23 -24 55.5 -37.5t67.5 -13.5t67.5 13.5t55.5 37.5q17 17 27 36.5t15 46.5t6.5 65.5
t1.5 94.5z" />
    <glyph glyph-name="P" unicode="P" horiz-adv-x="630" 
d="M588 503q0 -48 -16 -87t-45 -66t-69.5 -42t-89.5 -15h-189v-293h-76v712h265q49 0 89.5 -14.5t69.5 -42t45 -66t16 -86.5zM512 503q0 71 -42 106t-109 35h-182v-283h182q67 0 109 35.5t42 106.5z" />
    <glyph glyph-name="Q" unicode="Q" horiz-adv-x="649" 
d="M557 -35l-79 79q-65 -50 -153 -50q-108 0 -182 74q-25 25 -38.5 52t-20 60.5t-7.5 76t-1 99.5t1 99.5t7.5 76t20 60.5t38.5 52q74 74 182 74t182 -74q25 -25 38.5 -52t20 -60.5t7.5 -76t1 -99.5q0 -51 -1 -90.5t-5.5 -71t-14.5 -57t-28 -48.5l78 -78zM498 356
q0 56 -1.5 94.5t-6.5 65.5t-15 46.5t-27 36.5q-23 24 -55.5 37.5t-67.5 13.5t-67.5 -13.5t-55.5 -37.5q-17 -17 -27 -36.5t-15 -46.5t-6.5 -65.5t-1.5 -94.5t1.5 -94.5t6.5 -65.5t15 -46.5t27 -36.5q23 -24 55.5 -37.5t67.5 -13.5q56 0 101 34l-90 90l46 46l87 -87
q10 16 15.5 35t8.5 43.5t4 57t1 75.5z" />
    <glyph glyph-name="R" unicode="R" horiz-adv-x="656" 
d="M512 0l-162 316h-171v-316h-76v712h273q47 0 85.5 -13.5t66.5 -39t43.5 -62.5t15.5 -83q0 -78 -43 -127.5t-112 -63.5l169 -323h-89zM511 513q0 66 -39.5 98.5t-102.5 32.5h-190v-261h190q63 0 102.5 32t39.5 98z" />
    <glyph glyph-name="S" unicode="S" horiz-adv-x="588" 
d="M532 196q0 -47 -17.5 -84.5t-50 -63.5t-77.5 -40t-101 -14q-80 0 -137 22t-107 72l52 52q44 -44 89 -61t105 -17q78 0 123 34.5t45 97.5q0 28 -8.5 51t-25.5 38t-35.5 21.5t-57.5 12.5l-83 13q-85 14 -131 54q-54 48 -54 133q0 45 16 82.5t45.5 63.5t71.5 40.5t95 14.5
q68 0 117 -18.5t95 -59.5l-49 -49q-33 30 -71 45.5t-95 15.5q-72 0 -111 -36t-39 -96q0 -54 32 -82q17 -14 42.5 -24t53.5 -15l78 -12q50 -7 79 -18.5t51 -31.5q60 -51 60 -141z" />
    <glyph glyph-name="T" unicode="T" horiz-adv-x="548" 
d="M518 644h-206v-644h-76v644h-206v68h488v-68v0z" />
    <glyph glyph-name="U" unicode="U" horiz-adv-x="683" 
d="M590 235q0 -53 -18.5 -97.5t-52 -76.5t-79 -49.5t-99.5 -17.5t-99.5 17.5t-78.5 49.5t-51.5 76.5t-18.5 97.5v477h76v-471q0 -40 12.5 -73.5t35 -56.5t54 -36t70.5 -13t71 13t54.5 36t35 56.5t12.5 73.5v471h76v-477v0z" />
    <glyph glyph-name="V" unicode="V" horiz-adv-x="546" 
d="M538 712l-234 -712h-62l-234 712h80l185 -576l185 576h80v0z" />
    <glyph glyph-name="W" unicode="W" horiz-adv-x="854" 
d="M838 712l-182 -712h-71l-158 570l-158 -570h-71l-182 712h81l139 -574l157 574h68l157 -574l139 574h81v0z" />
    <glyph glyph-name="X" unicode="X" horiz-adv-x="551" 
d="M536 0h-88l-173 299l-174 -299h-86l218 365l-204 347h88l158 -281l158 281h88l-205 -347l220 -365v0z" />
    <glyph glyph-name="Y" unicode="Y" horiz-adv-x="514" 
d="M506 712l-210 -418v-294h-76v294l-212 418h82l168 -341l166 341h82v0z" />
    <glyph glyph-name="Z" unicode="Z" horiz-adv-x="556" 
d="M499 0h-442v72l356 572h-342v68h428v-64l-359 -580h359v-68v0z" />
    <glyph glyph-name="bracketleft" unicode="[" horiz-adv-x="313" 
d="M269 -74h-177v860h177v-64h-105v-732h105v-64v0z" />
    <glyph glyph-name="backslash" unicode="\" horiz-adv-x="355" 
d="M355 -74h-71l-284 857h71l284 -857v0z" />
    <glyph glyph-name="bracketright" unicode="]" horiz-adv-x="313" 
d="M221 -74h-177v62h108v736h-108v62h177v-860v0z" />
    <glyph glyph-name="asciicircum" unicode="^" horiz-adv-x="537" 
d="M465 413h-74l-122 228l-123 -228h-74l164 305h66l163 -305v0z" />
    <glyph glyph-name="underscore" unicode="_" horiz-adv-x="537" 
d="M537 -165h-537v51h537v-51v0z" />
    <glyph glyph-name="grave" unicode="`" horiz-adv-x="500" 
d="M299 594h-66l-108 153h86l88 -153v0z" />
    <glyph glyph-name="a" unicode="a" horiz-adv-x="526" 
d="M369 0v47q-15 -15 -30 -25t-31.5 -16.5t-36 -9t-44.5 -2.5q-51 0 -83.5 10.5t-55.5 34.5q-18 18 -27.5 44.5t-9.5 55.5q0 65 43.5 103.5t126.5 38.5h148v47q0 54 -29 81t-97 27q-48 0 -75 -12.5t-49 -43.5l-49 45q33 43 73.5 58t100.5 15q100 0 148.5 -41.5t48.5 -122.5
v-334h-72zM369 227h-138q-110 0 -110 -87q0 -43 27 -63.5t86 -20.5q32 0 59.5 5t50.5 28q25 24 25 85v53z" />
    <glyph glyph-name="b" unicode="b" horiz-adv-x="545" 
d="M481 246q0 -29 -2.5 -58t-9 -56.5t-18 -51.5t-30.5 -43q-20 -20 -51 -31.5t-69 -11.5q-41 0 -75 13t-64 52v-59h-72v712h72v-277q30 38 64 50.5t75 12.5q38 0 69 -11.5t51 -31.5q19 -19 30.5 -43t18 -51.5t9 -56.5t2.5 -58zM409 246q0 36 -4 70t-17 60t-37.5 42t-64.5 16
t-64.5 -16t-37.5 -42t-17.5 -60t-4.5 -70t4.5 -70t17.5 -60t37.5 -42t64.5 -16t64.5 16t37.5 42t17 60t4 70z" />
    <glyph glyph-name="c" unicode="c" horiz-adv-x="490" 
d="M443 67q-38 -41 -74.5 -57t-87.5 -16q-46 0 -86 16t-69.5 47.5t-46 78.5t-16.5 110t16.5 110.5t46 79t69.5 47t86 15.5q51 0 87.5 -16t74.5 -57l-49 -46q-28 31 -53 43t-60 12q-36 0 -65 -14t-49 -42q-17 -24 -24.5 -54.5t-7.5 -77.5t7.5 -77.5t24.5 -54.5q20 -28 49 -42
t65 -14q35 0 60 12.5t53 43.5l49 -47v0z" />
    <glyph glyph-name="d" unicode="d" horiz-adv-x="545" 
d="M384 0v59q-30 -39 -64.5 -52t-75.5 -13q-38 0 -69 11.5t-51 31.5q-19 19 -30.5 43t-18 51.5t-9 56.5t-2.5 58t2.5 58t9 56.5t18 51.5t30.5 43q20 20 51 31.5t69 11.5q41 0 75 -12.5t64 -50.5v277h72v-712h-71zM383 246q0 36 -4 70t-17 60t-37.5 42t-64.5 16t-64.5 -16
t-37.5 -42t-17.5 -60t-4.5 -70t4.5 -70t17.5 -60t37.5 -42t64.5 -16t64.5 16t37.5 42t17 60t4 70z" />
    <glyph glyph-name="e" unicode="e" horiz-adv-x="530" 
d="M135 227q0 -81 37 -125.5t108 -44.5q43 0 71.5 13.5t57.5 42.5l49 -43q-19 -19 -37.5 -33t-39.5 -23.5t-46 -14.5t-57 -5q-49 0 -88.5 15t-67.5 46t-43.5 78.5t-15.5 112.5q0 120 54 186t148 66q96 0 149 -64t53 -174v-33h-332zM395 281q-1 30 -4 46t-11 36
q-14 34 -45 54t-70 20t-70 -20t-45 -54q-4 -10 -6.5 -18.5t-4 -17.5t-2.5 -20t-2 -26h260v0z" />
    <glyph glyph-name="f" unicode="f" horiz-adv-x="314" 
d="M178 434v-434h-72v434h-63v55h63v93q0 27 7.5 51t23.5 42t39.5 28.5t54.5 10.5h52v-62h-39q-35 0 -50.5 -19t-15.5 -53v-91h105v-55h-105z" />
    <glyph glyph-name="g" unicode="g" horiz-adv-x="543" 
d="M453 -15q0 -46 -14 -84.5t-40 -66.5t-64.5 -44t-86.5 -16q-28 0 -50 3.5t-41.5 11.5t-37.5 20.5t-38 30.5l47 46q14 -12 26 -21t25.5 -15.5t29.5 -9.5t37 -3q36 0 61.5 12t42 32t24 47.5t7.5 59.5v77q-30 -38 -64 -51t-74 -13q-38 0 -68.5 12t-50.5 32q-37 37 -48.5 91
t-11.5 114t11.5 114t48.5 91q20 20 51 31.5t69 11.5q41 0 74.5 -12.5t63.5 -51.5v58h71v-507v0zM381 250q0 35 -4 68t-17 58.5t-37 41.5t-64 16t-64.5 -16t-37.5 -41.5t-17 -58.5t-4 -68q0 -34 4 -67.5t17 -59t37.5 -41.5t64.5 -16t64 16t37 41.5t17 59t4 67.5z" />
    <glyph glyph-name="h" unicode="h" horiz-adv-x="562" 
d="M405 0v304q0 65 -32 97.5t-88 32.5t-89.5 -33t-33.5 -97v-304h-72v712h72v-274q53 60 138 60q84 0 130.5 -49t46.5 -133v-316h-72z" />
    <glyph glyph-name="i" unicode="i" horiz-adv-x="253" 
d="M167 632h-81v81h81v-81v0zM162 0h-72v492h72v-492v0z" />
    <glyph glyph-name="j" unicode="j" horiz-adv-x="253" 
d="M86 632v81h81v-81h-81zM162 -89q0 -56 -30 -94t-95 -38h-52v63h39q38 0 52 18t14 54v575h72v-578v0z" />
    <glyph glyph-name="k" unicode="k" horiz-adv-x="536" 
d="M503 0h-89l-156 252l-96 -110v-142h-72v712h72v-476l222 256h90l-167 -188l196 -304v0z" />
    <glyph glyph-name="l" unicode="l" horiz-adv-x="297" 
d="M213 0q-64 0 -94.5 37.5t-30.5 93.5v581h72v-578q0 -36 14 -54t52 -18h39v-62h-52z" />
    <glyph glyph-name="m" unicode="m" horiz-adv-x="879" 
d="M722 0v303q0 66 -32.5 98.5t-88.5 32.5q-54 0 -88.5 -32t-34.5 -91v-311h-72v303q0 66 -32.5 98.5t-88.5 32.5t-89.5 -33t-33.5 -98v-303h-72v492h72v-54q26 30 61.5 45t77.5 15q51 0 89.5 -20.5t61.5 -61.5q58 82 162 82q40 0 72 -12t55 -34q53 -51 53 -137v-315h-72z
" />
    <glyph glyph-name="n" unicode="n" horiz-adv-x="562" 
d="M405 0v303q0 66 -32.5 98.5t-88.5 32.5t-89 -33t-33 -98v-303h-72v492h72v-54q53 60 138 60q80 0 126 -46q51 -50 51 -137v-315h-72z" />
    <glyph glyph-name="o" unicode="o" horiz-adv-x="530" 
d="M466 246q0 -28 -2.5 -55.5t-9 -52t-18 -47t-30.5 -41.5q-26 -26 -61 -41t-80 -15t-80 15t-61 41q-37 38 -48.5 88.5t-11.5 107.5t11.5 107.5t48.5 88.5q26 26 61 41t80 15t80 -15t61 -41q19 -19 30.5 -41.5t18 -47t9 -51.5t2.5 -56zM394 246q0 21 -1 42t-5 41t-11.5 38
t-21.5 31q-36 36 -90 36q-53 0 -89 -36q-13 -13 -21 -31t-12.5 -38t-5.5 -41t-1 -42t1 -42t5.5 -41t12.5 -37.5t21 -31.5q36 -36 89 -36q54 0 90 36q14 14 21.5 31.5t11.5 37.5t5 41t1 42z" />
    <glyph glyph-name="p" unicode="p" horiz-adv-x="545" 
d="M481 246q0 -29 -2.5 -58t-9 -56.5t-18 -51.5t-30.5 -43q-20 -20 -51 -31.5t-69 -11.5q-41 0 -75 13t-64 51v-278h-72v712h72v-58q30 39 64 51.5t75 12.5q38 0 69 -11.5t51 -31.5q19 -19 30.5 -43t18 -51.5t9 -56.5t2.5 -58zM409 246q0 36 -4 70t-17 60t-37.5 42t-64.5 16
t-64.5 -16t-37.5 -42t-17.5 -60t-4.5 -70t4.5 -70t17.5 -60t37.5 -42t64.5 -16t64.5 16t37.5 42t17 60t4 70z" />
    <glyph glyph-name="q" unicode="q" horiz-adv-x="545" 
d="M383 -220v278q-30 -38 -64 -51t-75 -13q-38 0 -69 11.5t-51 31.5q-19 19 -30.5 43t-18 51.5t-9 56.5t-2.5 58t2.5 58t9 56.5t18 51.5t30.5 43q20 20 51 31.5t69 11.5q41 0 75.5 -12.5t64.5 -51.5v58h71v-712h-72zM383 246q0 36 -4 70t-17 60t-37.5 42t-64.5 16t-64.5 -16
t-37.5 -42t-17.5 -60t-4.5 -70t4.5 -70t17.5 -60t37.5 -42t64.5 -16t64.5 16t37.5 42t17 60t4 70z" />
    <glyph glyph-name="r" unicode="r" horiz-adv-x="421" 
d="M365 398q-20 20 -38 28t-47 8q-27 0 -49 -10t-37 -28t-23.5 -42t-8.5 -52v-302h-72v492h72v-60q20 31 57.5 48.5t80.5 17.5q35 0 63.5 -10t54.5 -36z" />
    <glyph glyph-name="s" unicode="s" horiz-adv-x="496" 
d="M445 144q0 -36 -14.5 -63.5t-41 -47t-63 -29.5t-81.5 -10q-63 0 -112 16t-90 55l48 48q29 -31 68 -44t85 -13q61 0 96 21.5t35 65.5q0 32 -19.5 50t-62.5 22l-81 7q-72 6 -109.5 38.5t-37.5 93.5q0 34 13.5 60.5t37.5 45t57.5 28.5t72.5 10q53 0 98.5 -13t78.5 -40
l-47 -47q-26 20 -59.5 29.5t-71.5 9.5q-54 0 -82 -21.5t-28 -59.5q0 -32 19.5 -50t66.5 -22l79 -7q32 -3 59 -11t46 -24t29.5 -39.5t10.5 -58.5z" />
    <glyph glyph-name="t" unicode="t" horiz-adv-x="332" 
d="M228 0q-31 0 -55 10.5t-39.5 28.5t-23.5 42t-8 51v302h-62v55h62v154h72v-154h105v-55h-105v-300q0 -34 16 -53t51 -19h38v-62h-51z" />
    <glyph glyph-name="u" unicode="u" horiz-adv-x="562" 
d="M401 0v55q-26 -30 -61.5 -45.5t-77.5 -15.5q-81 0 -127 46q-26 26 -38 60.5t-12 77.5v314h72v-303q0 -66 32 -98.5t88 -32.5t89.5 33t33.5 98v303h72v-492h-71z" />
    <glyph glyph-name="v" unicode="v" horiz-adv-x="447" 
d="M436 492l-181 -492h-64l-180 492h78l134 -395l135 395h78v0z" />
    <glyph glyph-name="w" unicode="w" horiz-adv-x="724" 
d="M713 492l-155 -492h-67l-129 382l-128 -382h-67l-156 492h78l113 -395l129 395h62l130 -395l112 395h78v0z" />
    <glyph glyph-name="x" unicode="x" horiz-adv-x="478" 
d="M445 0h-87l-118 191l-120 -191h-87l167 251l-160 241h87l113 -182l111 182h87l-160 -241l167 -251v0z" />
    <glyph glyph-name="y" unicode="y" horiz-adv-x="447" 
d="M212 -119q-14 -39 -35 -58q-20 -19 -45 -26.5t-51 -7.5h-31v64h22q19 0 31.5 3t21.5 10.5t15.5 19t12.5 28.5l35 96l-177 482h78l135 -395l134 395h78z" />
    <glyph glyph-name="z" unicode="z" horiz-adv-x="459" 
d="M407 0h-357v62l274 366h-259v64h342v-61l-275 -367h275v-64v0z" />
    <glyph glyph-name="braceleft" unicode="{" horiz-adv-x="354" 
d="M268 -74q-38 0 -61.5 7t-39.5 23q-17 17 -23.5 38.5t-6.5 60.5v191q0 42 -18 60q-8 8 -19.5 13t-25.5 5h-26v64h26q14 0 25.5 5t19.5 13q18 18 18 60v191q0 39 6.5 60.5t23.5 38.5q16 16 39.5 23t61.5 7h37v-64h-23q-26 0 -38.5 -2.5t-20.5 -10.5t-11 -23t-3 -42v-188
q0 -43 -17 -64.5t-46 -35.5q29 -14 46 -35.5t17 -64.5v-188q0 -27 3 -42t11 -23t20.5 -10.5t38.5 -2.5h23v-64h-37z" />
    <glyph glyph-name="bar" unicode="|" horiz-adv-x="326" 
d="M199 -74h-72v860h72v-860v0z" />
    <glyph glyph-name="braceright" unicode="}" horiz-adv-x="354" 
d="M280 324q-14 0 -25.5 -5t-19.5 -13q-18 -18 -18 -60v-191q0 -39 -6.5 -60.5t-23.5 -38.5q-16 -16 -39.5 -23t-61.5 -7h-38v64h24q26 0 38 2.5t20 10.5t11.5 23t3.5 42v188q0 43 17 64.5t46 35.5q-29 14 -46 35.5t-17 64.5v188q0 27 -3.5 42t-11.5 23t-20 10.5t-38 2.5
h-24v64h38q38 0 61.5 -7t39.5 -23q17 -17 23.5 -38.5t6.5 -60.5v-191q0 -42 18 -60q8 -8 19.5 -13t25.5 -5h25v-64h-25z" />
    <glyph glyph-name="asciitilde" unicode="~" horiz-adv-x="539" 
d="M490 278q-21 -21 -37.5 -34t-31 -20.5t-29 -10.5t-31.5 -3q-26 0 -51.5 9t-54.5 22q-21 10 -39.5 17t-38.5 7q-10 0 -19 -1.5t-18.5 -6.5t-20.5 -13.5t-26 -23.5l-44 45q21 21 37.5 34.5t31 21t29 10t31.5 2.5q26 0 51 -9t54 -22q21 -10 39.5 -17t38.5 -7q11 0 19.5 1.5
t18 6.5t20.5 13.5t26 23.5l45 -45v0z" />
    <glyph glyph-name="Adieresis" unicode="&#x20ac;" horiz-adv-x="611" 
d="M599 0h-81l-57 161h-311l-57 -161h-81l262 712h64l261 -712v0zM439 227l-132 376l-134 -376h266v0zM444 789h-72v89h72v-89v0zM232 789h-72v89h72v-89v0z" />
    <glyph glyph-name="Aring" horiz-adv-x="611" 
d="M599 0h-81l-57 161h-311l-57 -161h-81l262 712h64l261 -712v0zM439 227l-132 376l-134 -376h266v0zM420 867q0 -24 -9.5 -46t-25.5 -38t-37.5 -25.5t-45.5 -9.5t-45.5 9.5t-37.5 25.5t-25.5 38t-9.5 46t9.5 45.5t25.5 37.5t37.5 25.5t45.5 9.5t45.5 -9t37.5 -25
t25.5 -37.5t9.5 -46.5zM371 867q0 29 -20 48.5t-49 19.5t-49 -19.5t-20 -48.5t20 -49t49 -20t49 20t20 49z" />
    <glyph glyph-name="Ccedilla" unicode="&#x201a;" horiz-adv-x="637" 
d="M572 206q-15 -89 -69 -142.5t-133 -66.5v-107h-70v106q-45 4 -85 22t-72 50q-25 25 -38.5 52t-20 60.5t-7.5 76t-1 99.5t1 99.5t7.5 76t20 60.5t38.5 52q36 36 82.5 55t99.5 19q48 0 89 -14.5t73.5 -41.5t54 -66.5t30.5 -89.5h-78q-14 66 -58 105t-111 39
q-35 0 -67.5 -13t-55.5 -37q-17 -17 -27 -36.5t-15 -47t-6.5 -66t-1.5 -94.5t1.5 -94.5t6.5 -66t15 -47t27 -36.5q23 -24 55.5 -37t67.5 -13q67 0 112 39t59 105h76v0z" />
    <glyph glyph-name="Eacute" unicode="&#x192;" horiz-adv-x="600" 
d="M545 0h-442v712h442v-68h-366v-251h312v-68h-312v-257h366v-68v0zM438 934l-108 -153h-66l88 153h86v0z" />
    <glyph glyph-name="Ntilde" unicode="&#x201e;" horiz-adv-x="732" 
d="M629 0h-72l-378 571v-571h-76v712h72l378 -569v569h76v-712v0zM523 846q-34 -34 -56 -42.5t-39 -8.5q-21 0 -37 6t-34 17q-14 8 -27.5 14.5t-28.5 6.5q-6 0 -11.5 -1t-12.5 -4t-15.5 -9.5t-19.5 -17.5l-37 36q17 17 30.5 27t24.5 15.5t21 7t19 1.5q22 0 37 -6.5t34 -17.5
q16 -10 28.5 -15t27.5 -5q11 0 24 5t35 27l37 -36v0z" />
    <glyph glyph-name="Odieresis" unicode="&#x2026;" horiz-adv-x="650" 
d="M574 356q0 -57 -1 -99.5t-7.5 -76t-20 -60.5t-38.5 -52q-36 -36 -82 -55t-100 -19q-108 0 -182 74q-25 25 -38.5 52t-20 60.5t-7.5 76t-1 99.5t1 99.5t7.5 76t20 60.5t38.5 52q74 74 182 74t182 -74q25 -25 38.5 -52t20 -60.5t7.5 -76t1 -99.5zM498 356q0 56 -1.5 94.5
t-6.5 65.5t-15 46.5t-27 36.5q-23 24 -55.5 37.5t-67.5 13.5t-67.5 -13.5t-55.5 -37.5q-17 -17 -27 -36.5t-15 -46.5t-6.5 -65.5t-1.5 -94.5t1.5 -94.5t6.5 -65.5t15 -46.5t27 -36.5q23 -24 55.5 -37.5t67.5 -13.5t67.5 13.5t55.5 37.5q17 17 27 36.5t15 46.5t6.5 65.5
t1.5 94.5zM467 789h-72v89h72v-89v0zM255 789h-72v89h72v-89v0z" />
    <glyph glyph-name="Udieresis" unicode="&#x2020;" horiz-adv-x="682" 
d="M590 235q0 -53 -18.5 -97.5t-52 -76.5t-79 -49.5t-99.5 -17.5t-99.5 17.5t-78.5 49.5t-51.5 76.5t-18.5 97.5v477h76v-471q0 -40 12.5 -73.5t35 -56.5t54 -36t70.5 -13t71 13t54.5 36t35 56.5t12.5 73.5v471h76v-477v0zM483 789h-72v89h72v-89v0zM271 789h-72v89h72v-89
v0z" />
    <glyph glyph-name="aacute" unicode="&#x2021;" horiz-adv-x="526" 
d="M369 0v47q-15 -15 -30 -25t-31.5 -16.5t-36 -9t-44.5 -2.5q-51 0 -83.5 10.5t-55.5 34.5q-18 18 -27.5 44.5t-9.5 55.5q0 65 43.5 103.5t126.5 38.5h148v47q0 54 -29 81t-97 27q-48 0 -75 -12.5t-49 -43.5l-49 45q33 43 73.5 58t100.5 15q100 0 148.5 -41.5t48.5 -122.5
v-334h-72zM369 227h-138q-110 0 -110 -87q0 -43 27 -63.5t86 -20.5q32 0 59.5 5t50.5 28q25 24 25 85v53zM377 747l-108 -153h-66l88 153h86v0z" />
    <glyph glyph-name="agrave" unicode="&#x2c6;" horiz-adv-x="526" 
d="M369 0v47q-15 -15 -30 -25t-31.5 -16.5t-36 -9t-44.5 -2.5q-51 0 -83.5 10.5t-55.5 34.5q-18 18 -27.5 44.5t-9.5 55.5q0 65 43.5 103.5t126.5 38.5h148v47q0 54 -29 81t-97 27q-48 0 -75 -12.5t-49 -43.5l-49 45q33 43 73.5 58t100.5 15q100 0 148.5 -41.5t48.5 -122.5
v-334h-72zM369 227h-138q-110 0 -110 -87q0 -43 27 -63.5t86 -20.5q32 0 59.5 5t50.5 28q25 24 25 85v53zM301 594h-66l-108 153h86l88 -153v0z" />
    <glyph glyph-name="acircumflex" unicode="&#x2030;" horiz-adv-x="526" 
d="M369 0v47q-15 -15 -30 -25t-31.5 -16.5t-36 -9t-44.5 -2.5q-51 0 -83.5 10.5t-55.5 34.5q-18 18 -27.5 44.5t-9.5 55.5q0 65 43.5 103.5t126.5 38.5h148v47q0 54 -29 81t-97 27q-48 0 -75 -12.5t-49 -43.5l-49 45q33 43 73.5 58t100.5 15q100 0 148.5 -41.5t48.5 -122.5
v-334h-72zM369 227h-138q-110 0 -110 -87q0 -43 27 -63.5t86 -20.5q32 0 59.5 5t50.5 28q25 24 25 85v53zM411 594h-69l-90 104l-90 -104h-69l125 153h68l125 -153v0z" />
    <glyph glyph-name="adieresis" unicode="&#x160;" horiz-adv-x="526" 
d="M369 0v47q-15 -15 -30 -25t-31.5 -16.5t-36 -9t-44.5 -2.5q-51 0 -83.5 10.5t-55.5 34.5q-18 18 -27.5 44.5t-9.5 55.5q0 65 43.5 103.5t126.5 38.5h148v47q0 54 -29 81t-97 27q-48 0 -75 -12.5t-49 -43.5l-49 45q33 43 73.5 58t100.5 15q100 0 148.5 -41.5t48.5 -122.5
v-334h-72zM369 227h-138q-110 0 -110 -87q0 -43 27 -63.5t86 -20.5q32 0 59.5 5t50.5 28q25 24 25 85v53zM394 602h-72v89h72v-89v0zM182 602h-72v89h72v-89v0z" />
    <glyph glyph-name="atilde" unicode="&#x2039;" horiz-adv-x="526" 
d="M369 0v47q-15 -15 -30 -25t-31.5 -16.5t-36 -9t-44.5 -2.5q-51 0 -83.5 10.5t-55.5 34.5q-18 18 -27.5 44.5t-9.5 55.5q0 65 43.5 103.5t126.5 38.5h148v47q0 54 -29 81t-97 27q-48 0 -75 -12.5t-49 -43.5l-49 45q33 43 73.5 58t100.5 15q100 0 148.5 -41.5t48.5 -122.5
v-334h-72zM369 227h-138q-110 0 -110 -87q0 -43 27 -63.5t86 -20.5q32 0 59.5 5t50.5 28q25 24 25 85v53zM409 659q-34 -34 -56 -42.5t-39 -8.5q-21 0 -37 6t-34 17q-14 8 -27.5 14.5t-28.5 6.5q-6 0 -11.5 -1t-12.5 -4t-15.5 -9.5t-19.5 -17.5l-37 36q17 17 30.5 27
t24.5 15.5t21 7t19 1.5q22 0 37 -6.5t34 -17.5q16 -10 28.5 -15t27.5 -5q11 0 24 5t35 27l37 -36v0z" />
    <glyph glyph-name="aring" unicode="&#x152;" horiz-adv-x="526" 
d="M369 0v47q-15 -15 -30 -25t-31.5 -16.5t-36 -9t-44.5 -2.5q-51 0 -83.5 10.5t-55.5 34.5q-18 18 -27.5 44.5t-9.5 55.5q0 65 43.5 103.5t126.5 38.5h148v47q0 54 -29 81t-97 27q-48 0 -75 -12.5t-49 -43.5l-49 45q33 43 73.5 58t100.5 15q100 0 148.5 -41.5t48.5 -122.5
v-334h-72zM369 227h-138q-110 0 -110 -87q0 -43 27 -63.5t86 -20.5q32 0 59.5 5t50.5 28q25 24 25 85v53zM370 687q0 -24 -9.5 -46t-25.5 -38t-37.5 -25.5t-45.5 -9.5t-45.5 9.5t-37.5 25.5t-25.5 38t-9.5 46t9.5 45.5t25.5 37.5t37.5 25.5t45.5 9.5t45.5 -9t37.5 -25
t25.5 -37.5t9.5 -46.5zM321 687q0 29 -20 48.5t-49 19.5t-49 -19.5t-20 -48.5t20 -49t49 -20t49 20t20 49z" />
    <glyph glyph-name="ccedilla" horiz-adv-x="494" 
d="M443 67q-32 -35 -61.5 -51t-67.5 -20v-106h-70v107q-39 6 -72.5 24t-57.5 49.5t-37.5 75t-13.5 100.5q0 63 16.5 110.5t46 79t69.5 47t86 15.5q51 0 87.5 -16t74.5 -57l-49 -46q-28 31 -53 43t-60 12q-36 0 -65 -14t-49 -42q-17 -24 -24.5 -54.5t-7.5 -77.5t7.5 -77.5
t24.5 -54.5q20 -28 49 -42t65 -14q35 0 60 12.5t53 43.5l49 -47v0z" />
    <glyph glyph-name="eacute" horiz-adv-x="530" 
d="M135 227q0 -81 37 -125.5t108 -44.5q43 0 71.5 13.5t57.5 42.5l49 -43q-19 -19 -37.5 -33t-39.5 -23.5t-46 -14.5t-57 -5q-49 0 -88.5 15t-67.5 46t-43.5 78.5t-15.5 112.5q0 120 54 186t148 66q96 0 149 -64t53 -174v-33h-332zM395 281q-1 30 -4 46t-11 36
q-14 34 -45 54t-70 20t-70 -20t-45 -54q-4 -10 -6.5 -18.5t-4 -17.5t-2.5 -20t-2 -26h260v0zM393 747l-108 -153h-66l88 153h86v0z" />
    <glyph glyph-name="egrave" horiz-adv-x="530" 
d="M135 227q0 -81 37 -125.5t108 -44.5q43 0 71.5 13.5t57.5 42.5l49 -43q-19 -19 -37.5 -33t-39.5 -23.5t-46 -14.5t-57 -5q-49 0 -88.5 15t-67.5 46t-43.5 78.5t-15.5 112.5q0 120 54 186t148 66q96 0 149 -64t53 -174v-33h-332zM395 281q-1 30 -4 46t-11 36
q-14 34 -45 54t-70 20t-70 -20t-45 -54q-4 -10 -6.5 -18.5t-4 -17.5t-2.5 -20t-2 -26h260v0zM317 594h-66l-108 153h86l88 -153v0z" />
    <glyph glyph-name="ecircumflex" horiz-adv-x="530" 
d="M135 227q0 -81 37 -125.5t108 -44.5q43 0 71.5 13.5t57.5 42.5l49 -43q-19 -19 -37.5 -33t-39.5 -23.5t-46 -14.5t-57 -5q-49 0 -88.5 15t-67.5 46t-43.5 78.5t-15.5 112.5q0 120 54 186t148 66q96 0 149 -64t53 -174v-33h-332zM395 281q-1 30 -4 46t-11 36
q-14 34 -45 54t-70 20t-70 -20t-45 -54q-4 -10 -6.5 -18.5t-4 -17.5t-2.5 -20t-2 -26h260v0zM427 594h-69l-90 104l-90 -104h-69l125 153h68l125 -153v0z" />
    <glyph glyph-name="edieresis" unicode="&#x2018;" horiz-adv-x="530" 
d="M135 227q0 -81 37 -125.5t108 -44.5q43 0 71.5 13.5t57.5 42.5l49 -43q-19 -19 -37.5 -33t-39.5 -23.5t-46 -14.5t-57 -5q-49 0 -88.5 15t-67.5 46t-43.5 78.5t-15.5 112.5q0 120 54 186t148 66q96 0 149 -64t53 -174v-33h-332zM395 281q-1 30 -4 46t-11 36
q-14 34 -45 54t-70 20t-70 -20t-45 -54q-4 -10 -6.5 -18.5t-4 -17.5t-2.5 -20t-2 -26h260v0zM410 602h-72v89h72v-89v0zM198 602h-72v89h72v-89v0z" />
    <glyph glyph-name="iacute" unicode="&#x2019;" horiz-adv-x="253" 
d="M162 0h-72v492h72v-492v0zM241 747l-108 -153h-66l88 153h86v0z" />
    <glyph glyph-name="igrave" unicode="&#x201c;" horiz-adv-x="253" 
d="M162 0h-72v492h72v-492v0zM193 594h-66l-108 153h86l88 -153v0z" />
    <glyph glyph-name="icircumflex" unicode="&#x201d;" horiz-adv-x="253" 
d="M162 0h-72v492h72v-492v0zM286 594h-69l-90 104l-90 -104h-69l125 153h68l125 -153v0z" />
    <glyph glyph-name="idieresis" unicode="&#x2022;" horiz-adv-x="253" 
d="M162 0h-72v492h72v-492v0zM267 602h-72v89h72v-89v0zM55 602h-72v89h72v-89v0z" />
    <glyph glyph-name="ntilde" unicode="&#x2013;" horiz-adv-x="562" 
d="M405 0v303q0 66 -32.5 98.5t-88.5 32.5t-89 -33t-33 -98v-303h-72v492h72v-54q53 60 138 60q80 0 126 -46q51 -50 51 -137v-315h-72zM442 659q-34 -34 -56 -42.5t-39 -8.5q-21 0 -37 6t-34 17q-14 8 -27.5 14.5t-28.5 6.5q-6 0 -11.5 -1t-12.5 -4t-15.5 -9.5t-19.5 -17.5
l-37 36q17 17 30.5 27t24.5 15.5t21 7t19 1.5q22 0 37 -6.5t34 -17.5q16 -10 28.5 -15t27.5 -5q11 0 24 5t35 27l37 -36v0z" />
    <glyph glyph-name="oacute" unicode="&#x2014;" horiz-adv-x="530" 
d="M466 246q0 -28 -2.5 -55.5t-9 -52t-18 -47t-30.5 -41.5q-26 -26 -61 -41t-80 -15t-80 15t-61 41q-37 38 -48.5 88.5t-11.5 107.5t11.5 107.5t48.5 88.5q26 26 61 41t80 15t80 -15t61 -41q19 -19 30.5 -41.5t18 -47t9 -51.5t2.5 -56zM394 246q0 21 -1 42t-5 41t-11.5 38
t-21.5 31q-36 36 -90 36q-53 0 -89 -36q-13 -13 -21 -31t-12.5 -38t-5.5 -41t-1 -42t1 -42t5.5 -41t12.5 -37.5t21 -31.5q36 -36 89 -36q54 0 90 36q14 14 21.5 31.5t11.5 37.5t5 41t1 42zM390 747l-108 -153h-66l88 153h86v0z" />
    <glyph glyph-name="ograve" unicode="&#x2dc;" horiz-adv-x="530" 
d="M466 246q0 -28 -2.5 -55.5t-9 -52t-18 -47t-30.5 -41.5q-26 -26 -61 -41t-80 -15t-80 15t-61 41q-37 38 -48.5 88.5t-11.5 107.5t11.5 107.5t48.5 88.5q26 26 61 41t80 15t80 -15t61 -41q19 -19 30.5 -41.5t18 -47t9 -51.5t2.5 -56zM394 246q0 21 -1 42t-5 41t-11.5 38
t-21.5 31q-36 36 -90 36q-53 0 -89 -36q-13 -13 -21 -31t-12.5 -38t-5.5 -41t-1 -42t1 -42t5.5 -41t12.5 -37.5t21 -31.5q36 -36 89 -36q54 0 90 36q14 14 21.5 31.5t11.5 37.5t5 41t1 42zM304 594h-66l-108 153h86l88 -153v0z" />
    <glyph glyph-name="ocircumflex" unicode="&#x2122;" horiz-adv-x="530" 
d="M466 246q0 -28 -2.5 -55.5t-9 -52t-18 -47t-30.5 -41.5q-26 -26 -61 -41t-80 -15t-80 15t-61 41q-37 38 -48.5 88.5t-11.5 107.5t11.5 107.5t48.5 88.5q26 26 61 41t80 15t80 -15t61 -41q19 -19 30.5 -41.5t18 -47t9 -51.5t2.5 -56zM394 246q0 21 -1 42t-5 41t-11.5 38
t-21.5 31q-36 36 -90 36q-53 0 -89 -36q-13 -13 -21 -31t-12.5 -38t-5.5 -41t-1 -42t1 -42t5.5 -41t12.5 -37.5t21 -31.5q36 -36 89 -36q54 0 90 36q14 14 21.5 31.5t11.5 37.5t5 41t1 42zM424 594h-69l-90 104l-90 -104h-69l125 153h68l125 -153v0z" />
    <glyph glyph-name="odieresis" unicode="&#x161;" horiz-adv-x="530" 
d="M466 246q0 -28 -2.5 -55.5t-9 -52t-18 -47t-30.5 -41.5q-26 -26 -61 -41t-80 -15t-80 15t-61 41q-37 38 -48.5 88.5t-11.5 107.5t11.5 107.5t48.5 88.5q26 26 61 41t80 15t80 -15t61 -41q19 -19 30.5 -41.5t18 -47t9 -51.5t2.5 -56zM394 246q0 21 -1 42t-5 41t-11.5 38
t-21.5 31q-36 36 -90 36q-53 0 -89 -36q-13 -13 -21 -31t-12.5 -38t-5.5 -41t-1 -42t1 -42t5.5 -41t12.5 -37.5t21 -31.5q36 -36 89 -36q54 0 90 36q14 14 21.5 31.5t11.5 37.5t5 41t1 42zM407 602h-72v89h72v-89v0zM195 602h-72v89h72v-89v0z" />
    <glyph glyph-name="otilde" unicode="&#x203a;" horiz-adv-x="530" 
d="M466 246q0 -28 -2.5 -55.5t-9 -52t-18 -47t-30.5 -41.5q-26 -26 -61 -41t-80 -15t-80 15t-61 41q-37 38 -48.5 88.5t-11.5 107.5t11.5 107.5t48.5 88.5q26 26 61 41t80 15t80 -15t61 -41q19 -19 30.5 -41.5t18 -47t9 -51.5t2.5 -56zM394 246q0 21 -1 42t-5 41t-11.5 38
t-21.5 31q-36 36 -90 36q-53 0 -89 -36q-13 -13 -21 -31t-12.5 -38t-5.5 -41t-1 -42t1 -42t5.5 -41t12.5 -37.5t21 -31.5q36 -36 89 -36q54 0 90 36q14 14 21.5 31.5t11.5 37.5t5 41t1 42zM422 659q-34 -34 -56 -42.5t-39 -8.5q-21 0 -37 6t-34 17q-14 8 -27.5 14.5
t-28.5 6.5q-6 0 -11.5 -1t-12.5 -4t-15.5 -9.5t-19.5 -17.5l-37 36q17 17 30.5 27t24.5 15.5t21 7t19 1.5q22 0 37 -6.5t34 -17.5q16 -10 28.5 -15t27.5 -5q11 0 24 5t35 27l37 -36v0z" />
    <glyph glyph-name="uacute" unicode="&#x153;" horiz-adv-x="563" 
d="M401 0v55q-26 -30 -61.5 -45.5t-77.5 -15.5q-81 0 -127 46q-26 26 -38 60.5t-12 77.5v314h72v-303q0 -66 32 -98.5t88 -32.5t89.5 33t33.5 98v303h72v-492h-71zM403 747l-108 -153h-66l88 153h86v0z" />
    <glyph glyph-name="ugrave" horiz-adv-x="563" 
d="M401 0v55q-26 -30 -61.5 -45.5t-77.5 -15.5q-81 0 -127 46q-26 26 -38 60.5t-12 77.5v314h72v-303q0 -66 32 -98.5t88 -32.5t89.5 33t33.5 98v303h72v-492h-71zM327 594h-66l-108 153h86l88 -153v0z" />
    <glyph glyph-name="ucircumflex" horiz-adv-x="563" 
d="M401 0v55q-26 -30 -61.5 -45.5t-77.5 -15.5q-81 0 -127 46q-26 26 -38 60.5t-12 77.5v314h72v-303q0 -66 32 -98.5t88 -32.5t89.5 33t33.5 98v303h72v-492h-71zM437 594h-69l-90 104l-90 -104h-69l125 153h68l125 -153v0z" />
    <glyph glyph-name="udieresis" unicode="&#x178;" horiz-adv-x="563" 
d="M401 0v55q-26 -30 -61.5 -45.5t-77.5 -15.5q-81 0 -127 46q-26 26 -38 60.5t-12 77.5v314h72v-303q0 -66 32 -98.5t88 -32.5t89.5 33t33.5 98v303h72v-492h-71zM420 602h-72v89h72v-89v0zM208 602h-72v89h72v-89v0z" />
    <glyph glyph-name="dagger" unicode="&#xa0;" horiz-adv-x="605" 
d="M531 445h-194v-445h-72v445h-191v64h191v203h72v-203h194v-64v0z" />
    <glyph glyph-name="degree" unicode="&#xa1;" horiz-adv-x="463" 
d="M396 557q0 -34 -13 -64t-35 -52t-52 -35t-64 -13t-64 13t-52.5 35t-35.5 52t-13 64t13 64t35.5 52t52.5 35t64 13t64 -13t52 -35t35 -52t13 -64zM335 557q0 23 -8 42t-22 33.5t-33 22.5t-41 8t-41 -8t-32.5 -22.5t-21.5 -33.5t-8 -42q0 -22 8 -41.5t22 -34t33 -22.5
t41 -8t41 8t32.5 22.5t21.5 34t8 41.5z" />
    <glyph glyph-name="cent" unicode="&#xa2;" horiz-adv-x="498" 
d="M448 189q-35 -38 -67.5 -54.5t-77.5 -19.5v-115h-59v117q-83 12 -132 76t-49 173t49 173t132 76v97h59v-95q45 -3 77.5 -19.5t67.5 -54.5l-49 -46q-25 28 -47.5 40.5t-52.5 14.5v-372q30 2 52.5 14.5t47.5 40.5l49 -46v0zM248 550q-49 -9 -80 -52q-17 -24 -25 -54.5
t-8 -77.5t8 -77.5t25 -54.5q31 -43 80 -52v368z" />
    <glyph glyph-name="sterling" unicode="&#xa3;" horiz-adv-x="548" 
d="M110 0v330h-63v54h63v112q0 51 16.5 92.5t46 70t70.5 44t90 15.5q51 0 90.5 -15.5t72.5 -48.5l-52 -51q-19 20 -43 33.5t-68 13.5q-70 0 -108 -42.5t-38 -121.5v-102h146v-54h-146v-262h309v-68h-386z" />
    <glyph glyph-name="section" unicode="&#xa4;" horiz-adv-x="557" 
d="M470 254q0 -31 -9 -56.5t-23.5 -46.5t-33 -36t-38.5 -25q43 -16 70 -52.5t27 -91.5q0 -39 -14.5 -71t-39 -54.5t-58 -34.5t-72.5 -12q-37 0 -70.5 10t-59 30.5t-41.5 50.5t-18 70h73q5 -47 35 -71t81 -24t81 27t30 78q0 35 -23 62.5t-65 39.5l-78 22q-66 19 -101.5 66.5
t-35.5 116.5q0 31 9 56.5t23.5 46.5t33.5 36t39 25q-43 20 -68 51.5t-25 86.5q0 36 13.5 66.5t37.5 52t57 33.5t72 12t72 -11t57 -31t38 -49.5t15 -65.5h-72q-4 50 -33 71.5t-77 21.5q-51 0 -79.5 -25t-28.5 -74q0 -40 23 -62.5t61 -33.5l78 -22q66 -19 101.5 -67t35.5 -116
zM397 253q0 29 -6.5 51t-25.5 41q-36 36 -86 36q-53 0 -86 -36q-17 -19 -25 -40t-8 -52q0 -32 9.5 -54t23.5 -38q33 -36 86 -36t86 36q15 17 23.5 38.5t8.5 53.5z" />
    <glyph glyph-name="bullet" unicode="&#xa5;" horiz-adv-x="532" 
d="M429 334q0 -34 -13 -63.5t-35 -51.5t-51.5 -35t-63.5 -13t-63.5 13t-51.5 35t-35 51.5t-13 63.5t13 63.5t35 51.5t51.5 35t63.5 13t63.5 -13t51.5 -35t35 -51.5t13 -63.5z" />
    <glyph glyph-name="paragraph" unicode="&#xa6;" horiz-adv-x="603" 
d="M428 -220v864h-117v-864h-72v546q-45 0 -81.5 16t-62 43t-39.5 61.5t-14 71.5q0 40 14.5 75.5t42.5 61.5t68.5 41.5t91.5 15.5h241v-932h-72z" />
    <glyph glyph-name="germandbls" unicode="&#xa7;" horiz-adv-x="556" 
d="M484 141q0 -69 -39 -105q-20 -19 -44 -27.5t-59 -8.5h-54v62h40q22 0 34 4.5t25 15.5q25 20 25 67v169q0 41 -21 62t-59 21h-44v60h36q39 0 63.5 24.5t24.5 66.5q0 22 -8.5 41.5t-22.5 33.5q-30 29 -94 29q-67 0 -95.5 -37.5t-28.5 -97.5v-521h-73v524q0 94 54 144.5
t147 50.5q40 0 75 -10t61.5 -30t41.5 -51.5t15 -74.5q0 -42 -16.5 -70.5t-46.5 -48.5q36 -19 49.5 -45.5t13.5 -74.5v-173v0z" />
    <glyph glyph-name="registered" unicode="&#xa8;" horiz-adv-x="881" 
d="M802 356q0 -75 -28.5 -141t-77.5 -115t-115 -77.5t-141 -28.5t-141 28.5t-115 77.5t-77.5 115t-28.5 141t28.5 141t77.5 115t115 77.5t141 28.5t141 -28.5t115 -77.5t77.5 -115t28.5 -141zM745 356q0 64 -24 120t-65.5 98t-97 66.5t-118.5 24.5t-118.5 -24.5t-96.5 -66.5
t-65 -98t-24 -120t24 -120t65 -98t96.5 -66.5t118.5 -24.5t118.5 24.5t97 66.5t65.5 98t24 120zM528 158l-91 162h-60v-162h-55v397h135q26 0 48.5 -9t39.5 -25t27 -38t10 -47q0 -44 -24 -71t-61 -38l95 -169h-64zM526 436q0 30 -21 50t-54 20h-74v-139h74q33 0 54 19.5
t21 49.5z" />
    <glyph glyph-name="copyright" unicode="&#xa9;" horiz-adv-x="881" 
d="M802 356q0 -75 -28.5 -141t-77.5 -115t-115 -77.5t-141 -28.5t-141 28.5t-115 77.5t-77.5 115t-28.5 141t28.5 141t77.5 115t115 77.5t141 28.5t141 -28.5t115 -77.5t77.5 -115t28.5 -141zM744 356q0 63 -24 119t-65 98t-96.5 66.5t-118.5 24.5t-118 -24.5t-96.5 -66.5
t-65 -98t-23.5 -119t23.5 -119t65 -98t96.5 -66.5t118 -24.5t118.5 24.5t96.5 66.5t65 98t24 119zM576 205q-29 -26 -59 -39t-72 -13q-43 0 -76.5 15.5t-56 42.5t-34 64t-11.5 81t11.5 81.5t34 64.5t56 42.5t76.5 15.5q42 0 71 -13t60 -40l-36 -36q-25 22 -46 30.5t-49 8.5
q-34 0 -57.5 -12t-37.5 -33t-20.5 -49t-6.5 -60q0 -31 6.5 -59t20.5 -49t37.5 -33t57.5 -12q28 0 49 8t46 30l36 -36v0z" />
    <glyph glyph-name="trademark" unicode="&#xaa;" horiz-adv-x="839" 
d="M781 285h-57v308l-102 -202h-56l-102 202v-308h-58v427h58l130 -259l130 259h57v-427v0zM331 659h-119v-374h-58v374h-118v53h295v-53v0z" />
    <glyph glyph-name="acute" unicode="&#xab;" horiz-adv-x="500" 
d="M375 747l-108 -153h-66l88 153h86v0z" />
    <glyph glyph-name="dieresis" unicode="&#xac;" horiz-adv-x="500" 
d="M392 602h-72v89h72v-89v0zM180 602h-72v89h72v-89v0z" />
    <glyph glyph-name="notequal" unicode="&#xad;" horiz-adv-x="537" 
d="M485 151h-284l-103 -111l-46 40l67 71h-67v66h126l99 103h-225v67h284l104 111l45 -41l-67 -70h67v-67h-126l-98 -103h224v-66v0z" />
    <glyph glyph-name="AE" unicode="&#xae;" horiz-adv-x="922" 
d="M867 0h-441v169h-247l-88 -169h-83l376 712h483v-68h-366v-253h312v-68h-312v-255h366v-68v0zM426 235v409l-214 -409h214v0z" />
    <glyph glyph-name="Oslash" unicode="&#xaf;" horiz-adv-x="652" 
d="M574 356q0 -57 -1 -99.5t-7.5 -76t-20 -60.5t-38.5 -52q-36 -36 -82 -55t-100 -19q-70 0 -126 32l-33 -70h-65l50 104l-8 8q-25 25 -38.5 52t-20 60.5t-7.5 76t-1 99.5t1 99.5t7.5 76t20 60.5t38.5 52q74 74 182 74q70 0 125 -31l34 69h65l-50 -104l4 -4l4 -4
q25 -25 38.5 -52t20 -60.5t7.5 -76t1 -99.5zM497 356q0 49 -1 84t-4.5 61.5t-10 45t-18.5 34.5l-234 -490q21 -14 45.5 -21.5t50.5 -7.5q35 0 67.5 13.5t55.5 37.5q17 17 26.5 36.5t14.5 46.5t6.5 65.5t1.5 94.5zM421 621q-21 14 -45.5 21.5t-50.5 7.5q-35 0 -67.5 -13.5
t-55.5 -37.5q-17 -17 -27 -36.5t-15 -46.5t-6.5 -65.5t-1.5 -94.5q0 -49 1 -84t5 -61.5t10.5 -45t18.5 -34.5l234 490v0z" />
    <glyph glyph-name="infinity" unicode="&#xb0;" horiz-adv-x="808" 
d="M740 267q0 -34 -11 -63t-32 -50.5t-50 -33.5t-65 -12q-52 0 -93 25t-85 79q-44 -54 -85 -79.5t-92 -25.5q-36 0 -65.5 12.5t-50.5 34t-32.5 50.5t-11.5 63t11.5 63t32.5 50.5t50.5 34t65.5 12.5q50 0 91 -26t86 -80q45 54 85 80t93 26q36 0 65 -12.5t50 -34t32 -50.5
t11 -63zM671 266q0 42 -25.5 67.5t-66.5 25.5q-37 0 -66 -25.5t-64 -67.5q35 -42 64 -67.5t66 -25.5q41 0 66.5 25.5t25.5 67.5zM358 266q-35 42 -63.5 68t-65.5 26q-41 0 -67 -26t-26 -68t26 -67.5t67 -25.5q37 0 65.5 25.5t63.5 67.5z" />
    <glyph glyph-name="plusminus" unicode="&#xb1;" 
d="M470 289h-175v-177h-67v177h-176v67h176v175h67v-175h175v-67v0zM470 0h-418v67h418v-67v0z" />
    <glyph glyph-name="lessequal" unicode="&#xb2;" horiz-adv-x="1027" 
d="M862 -31l-49 -49l-557 558v-516l-67 67v564h565l66 -67l-515 1l557 -558v0z" />
    <glyph glyph-name="greaterequal" unicode="&#xb3;" horiz-adv-x="1027" 
d="M838 29l-67 -67v516l-557 -558l-49 49l557 558l-515 -1l66 67h565v-564v0z" />
    <glyph glyph-name="yen" unicode="&#xb4;" horiz-adv-x="514" 
d="M506 712l-157 -311h100v-54h-127l-26 -53v-52h153v-55h-153v-187h-77v187h-154v55h154v52l-26 53h-128v54h100l-157 311h82l168 -341l167 341h81v0z" />
    <glyph glyph-name="mu" unicode="&#xb5;" horiz-adv-x="561" 
d="M399 0v55q-53 -61 -138 -61q-66 0 -106 37v-251h-72v712h72v-303q0 -66 32.5 -98.5t88.5 -32.5t89.5 33t33.5 98v303h72v-492h-72z" />
    <glyph glyph-name="partialdiff" unicode="&#xb6;" horiz-adv-x="544" 
d="M453 244q0 -57 -10.5 -107t-46.5 -88q-24 -26 -58 -40.5t-78 -14.5t-78.5 14.5t-58.5 40.5q-36 38 -46.5 88t-10.5 107q0 61 10.5 111t46.5 87q20 21 53 37t77 16q36 0 67.5 -11.5t60.5 -46.5v70q0 30 -7.5 57t-24 47.5t-42 32.5t-61.5 12q-21 0 -37 -3.5t-29.5 -9.5
t-25.5 -15.5t-26 -21.5l-46 46q20 18 37.5 30.5t37 20.5t41.5 11.5t50 3.5q50 0 88.5 -15.5t64.5 -44t39 -68.5t13 -88v-258v0zM381 244q0 21 -1 42t-4.5 40.5t-11 37.5t-20.5 31q-34 36 -84 36q-51 0 -85 -36q-13 -13 -20 -31t-11 -37.5t-5 -40.5t-1 -42t1 -42t5 -40.5
t11 -36.5t20 -31q34 -36 85 -36q50 0 84 36q13 14 20.5 31t11 36.5t4.5 40.5t1 42z" />
    <glyph glyph-name="summation" unicode="&#xb7;" horiz-adv-x="551" 
d="M500 -220h-443v65l202 438l-201 413v64h441v-68h-353l180 -375v-69l-182 -400h356v-68v0z" />
    <glyph glyph-name="summation" unicode="&#x2219;" horiz-adv-x="551" 
d="M500 -220h-443v65l202 438l-201 413v64h441v-68h-353l180 -375v-69l-182 -400h356v-68v0z" />
    <glyph glyph-name="product" unicode="&#xb8;" horiz-adv-x="696" 
d="M593 -220h-76v912h-338v-912h-76v980h490v-980v0z" />
    <glyph glyph-name="pi" unicode="&#xb9;" horiz-adv-x="591" 
d="M490 0h-69v427h-250v-427h-70v492h389v-492v0z" />
    <glyph glyph-name="integral" unicode="&#xba;" horiz-adv-x="372" 
d="M296 653q-37 0 -55 -20t-18 -57v-654q0 -64 -35.5 -102t-100.5 -38h-50v62h39q37 0 55 20t18 57v654q0 64 35.5 102t100.5 38h49v-62h-38z" />
    <glyph glyph-name="ordfeminine" unicode="&#xbb;" horiz-adv-x="449" 
d="M307 319v36q-23 -23 -48 -32t-63 -9q-41 0 -66 8.5t-44 27.5q-30 32 -30 79q0 52 34.5 83t100.5 31h115v36q0 42 -21.5 63t-75.5 21q-37 0 -58.5 -9.5t-39.5 -34.5l-41 37q27 35 59.5 47.5t80.5 12.5q79 0 117 -34t38 -98v-265h-58zM306 498h-107q-84 0 -84 -67
q0 -33 20.5 -49t65.5 -16q25 0 46.5 4t39.5 21q19 18 19 67v40z" />
    <glyph glyph-name="ordmasculine" unicode="&#xbc;" horiz-adv-x="455" 
d="M387 515q0 -46 -9 -85.5t-39 -70.5q-20 -20 -48 -32t-64 -12t-64 12t-48 32q-30 31 -39 70.5t-9 85.5q0 45 9 85t39 71q20 20 48 32.5t64 12.5t64 -12.5t48 -32.5q30 -31 39 -71t9 -85zM328 515q0 32 -5 65t-26 54q-28 28 -70 28t-70 -28q-21 -21 -25.5 -54t-4.5 -65
t4.5 -64.5t25.5 -53.5q14 -14 32 -21.5t38 -7.5t38 7.5t32 21.5q21 21 26 53.5t5 64.5z" />
    <glyph glyph-name="Omega" unicode="&#xbd;" horiz-adv-x="650" 
d="M379 0v64q30 14 52.5 31t39.5 45t21.5 79t4.5 135q0 56 -1.5 95t-6.5 66.5t-14.5 47t-26.5 36.5q-24 24 -56 37.5t-67 13.5t-67 -13.5t-56 -37.5q-16 -17 -26 -36.5t-15.5 -47t-7 -66.5t-1.5 -95q0 -84 5 -135t22 -79t39.5 -45t52.5 -31v-64h-195v67h82q-20 17 -33 33
t-22 34q-11 21 -16.5 47t-8 54.5t-2.5 59v61.5q0 57 1 99.5t7.5 76t20 60.5t38.5 52q74 74 182 74t182 -74q25 -25 38.5 -52t20 -60.5t7.5 -76t1 -99.5v-61.5t-2.5 -59t-8 -54.5t-16.5 -47q-9 -18 -22.5 -34t-33.5 -33h83v-67h-195z" />
    <glyph glyph-name="ae" unicode="&#xbe;" horiz-adv-x="835" 
d="M440 227q0 -81 37.5 -125.5t108.5 -44.5q43 0 71 13.5t57 42.5l50 -43q-37 -37 -78 -56.5t-104 -19.5q-58 0 -103 20.5t-72 64.5q-34 -48 -75 -66.5t-105 -18.5q-51 0 -83.5 10.5t-55.5 34.5q-18 18 -27.5 44.5t-9.5 55.5q0 65 43.5 103.5t126.5 38.5h148v47q0 54 -29 81
t-97 27q-48 0 -75 -12.5t-49 -43.5l-49 45q33 43 73.5 58t100.5 15q132 0 173 -77q52 77 154 77q96 0 149 -64t53 -174v-33h-333zM701 281q-1 30 -4 46t-11 36q-14 34 -45 54t-70 20t-70 -20t-45 -54q-8 -20 -11 -36t-5 -46h261v0zM369 227h-138q-110 0 -110 -87
q0 -43 27 -63.5t86 -20.5q32 0 59.5 5t50.5 28q25 24 25 85v53z" />
    <glyph glyph-name="oslash" unicode="&#xbf;" horiz-adv-x="530" 
d="M466 246q0 -28 -2.5 -55.5t-9 -52t-18 -47t-30.5 -41.5q-26 -26 -61 -41t-80 -15q-31 0 -57 7t-48 20l-38 -65h-57l57 96q-36 38 -47 87.5t-11 106.5t11.5 107.5t48.5 88.5q26 26 61 41t80 15q31 0 57 -7t48 -20l39 65h56l-57 -96q36 -38 47 -87.5t11 -106.5zM394 246
q0 35 -3.5 70.5t-20.5 62.5l-177 -299q31 -22 72 -22q54 0 90 36q14 14 21.5 31.5t11.5 37.5t5 41t1 42zM337 413q-30 21 -72 21q-53 0 -89 -36q-13 -13 -21 -31t-12.5 -38t-5.5 -41t-1 -42q0 -35 4 -70.5t21 -62.5l176 300v0z" />
    <glyph glyph-name="questiondown" unicode="&#xc0;" horiz-adv-x="497" 
d="M185 408v84h85v-84h-85zM421 -43q0 -38 -14 -71.5t-39 -58.5t-59 -39t-75 -14q-39 0 -73.5 13.5t-60 38t-40 58t-14.5 73.5q0 35 13 63t33 57l82 118q9 14 13.5 30t4.5 28v40h72v-41q0 -29 -8 -50t-24 -44l-81 -116q-14 -21 -23.5 -40t-9.5 -45q0 -51 32.5 -84.5
t83.5 -33.5q27 0 48 9.5t36 26t23 37.5t8 45h72v0z" />
    <glyph glyph-name="exclamdown" unicode="&#xc1;" horiz-adv-x="316" 
d="M185 408h-86v84h86v-84v0zM184 -220h-83l10 512h62l11 -512v0z" />
    <glyph glyph-name="logicalnot" unicode="&#xc2;" 
d="M471 103h-67v137h-353v67h420v-204v0z" />
    <glyph glyph-name="radical" unicode="&#xc3;" horiz-adv-x="562" 
d="M532 644h-89l-211 -644h-61l-163 492h79l115 -356l184 576h146v-68v0z" />
    <glyph glyph-name="florin" unicode="&#xc4;" horiz-adv-x="403" 
d="M323 652q-35 0 -54 -19t-25 -53l-34 -196h105v-54h-115l-97 -550h-72l97 550h-98v54h108l34 198q5 27 17 51t31 42t44.5 28.5t56.5 10.5h52v-62h-50z" />
    <glyph glyph-name="approxequal" unicode="&#xc5;" horiz-adv-x="539" 
d="M490 366q-21 -21 -37.5 -34t-31 -20.5t-29 -10.5t-31.5 -3q-26 0 -51.5 9.5t-54.5 22.5q-21 10 -39.5 16.5t-38.5 6.5q-10 0 -19 -1.5t-18.5 -6t-20.5 -13t-26 -23.5l-44 44q21 21 37.5 34.5t31 21t29 10.5t31.5 3q26 0 51 -9.5t54 -22.5q21 -10 39.5 -16.5t38.5 -6.5
q11 0 19.5 1.5t18 6t20.5 13t26 23.5l45 -45v0zM490 189q-21 -21 -37.5 -34t-31 -20.5t-29 -10.5t-31.5 -3q-26 0 -51.5 9t-54.5 22q-21 10 -39 17t-38 7q-10 0 -19 -1.5t-18.5 -6.5t-20.5 -13.5t-26 -23.5l-45 45q21 21 37.5 34.5t31 21t29 10t31.5 2.5q26 0 51.5 -9
t54.5 -22q21 -10 39 -17t38 -7q11 0 19.5 1.5t18 6.5t20.5 13.5t26 23.5l45 -45v0z" />
    <glyph glyph-name="Delta" unicode="&#xc6;" horiz-adv-x="603" 
d="M594 0h-586l262 712h63l261 -712v0zM495 66l-193 537l-194 -537h387v0z" />
    <glyph glyph-name="guillemotleft" unicode="&#xc7;" horiz-adv-x="554" 
d="M476 58l-210 210l210 210v-90l-121 -120l121 -121v-89v0zM250 58l-210 210l210 210v-90l-120 -120l120 -121v-89v0z" />
    <glyph glyph-name="guillemotright" unicode="&#xc8;" horiz-adv-x="554" 
d="M514 268l-210 -210v89l120 121l-120 120v90l210 -210v0zM288 268l-210 -210v89l121 121l-121 120v90l210 -210v0z" />
    <glyph glyph-name="ellipsis" unicode="&#xc9;" horiz-adv-x="757" 
d="M669 0h-92v92h92v-92v0zM424 0h-92v92h92v-92v0zM180 0h-92v92h92v-92v0z" />
    <glyph glyph-name="nonbreakingspace" unicode="&#xca;" horiz-adv-x="249" 
 />
    <glyph glyph-name="Agrave" unicode="&#xcb;" horiz-adv-x="611" 
d="M599 0h-81l-57 161h-311l-57 -161h-81l262 712h64l261 -712v0zM439 227l-132 376l-134 -376h266v0zM351 781h-66l-108 153h86l88 -153v0z" />
    <glyph glyph-name="Atilde" unicode="&#xcc;" horiz-adv-x="611" 
d="M599 0h-81l-57 161h-311l-57 -161h-81l262 712h64l261 -712v0zM439 227l-132 376l-134 -376h266v0zM459 846q-34 -34 -56 -42.5t-39 -8.5q-21 0 -37 6t-34 17q-14 8 -27.5 14.5t-28.5 6.5q-6 0 -11.5 -1t-12.5 -4t-15.5 -9.5t-19.5 -17.5l-37 36q17 17 30.5 27t24.5 15.5
t21 7t19 1.5q22 0 37 -6.5t34 -17.5q16 -10 28.5 -15t27.5 -5q11 0 24 5t35 27l37 -36v0z" />
    <glyph glyph-name="Otilde" unicode="&#xcd;" horiz-adv-x="650" 
d="M574 356q0 -57 -1 -99.5t-7.5 -76t-20 -60.5t-38.5 -52q-36 -36 -82 -55t-100 -19q-108 0 -182 74q-25 25 -38.5 52t-20 60.5t-7.5 76t-1 99.5t1 99.5t7.5 76t20 60.5t38.5 52q74 74 182 74t182 -74q25 -25 38.5 -52t20 -60.5t7.5 -76t1 -99.5zM498 356q0 56 -1.5 94.5
t-6.5 65.5t-15 46.5t-27 36.5q-23 24 -55.5 37.5t-67.5 13.5t-67.5 -13.5t-55.5 -37.5q-17 -17 -27 -36.5t-15 -46.5t-6.5 -65.5t-1.5 -94.5t1.5 -94.5t6.5 -65.5t15 -46.5t27 -36.5q23 -24 55.5 -37.5t67.5 -13.5t67.5 13.5t55.5 37.5q17 17 27 36.5t15 46.5t6.5 65.5
t1.5 94.5zM482 846q-34 -34 -56 -42.5t-39 -8.5q-21 0 -37 6t-34 17q-14 8 -27.5 14.5t-28.5 6.5q-6 0 -11.5 -1t-12.5 -4t-15.5 -9.5t-19.5 -17.5l-37 36q17 17 30.5 27t24.5 15.5t21 7t19 1.5q22 0 37 -6.5t34 -17.5q16 -10 28.5 -15t27.5 -5q11 0 24 5t35 27l37 -36v0z
" />
    <glyph glyph-name="OE" unicode="&#xce;" horiz-adv-x="989" 
d="M497 0v74q-33 -41 -78.5 -60.5t-94.5 -19.5q-107 0 -181 74q-25 25 -38.5 51.5t-20 60.5t-7.5 76.5t-1 99.5t1 99.5t7.5 76.5t20 60.5t38.5 51.5q74 74 181 74q53 0 96.5 -19.5t76.5 -60.5v74h434v-67h-358q0 -59 0.5 -127.5t0.5 -126.5h304v-64h-304q0 -60 -0.5 -130
t-0.5 -130h360v-67h-436zM497 356q0 56 -1.5 94.5t-6.5 65.5t-14.5 46.5t-26.5 36.5q-23 24 -55.5 37.5t-67.5 13.5t-67.5 -13.5t-55.5 -37.5q-17 -17 -27 -36.5t-15 -46.5t-6.5 -65.5t-1.5 -94.5t1.5 -94.5t6.5 -65.5t15 -46.5t27 -36.5q23 -24 55.5 -37.5t67.5 -13.5
t67.5 13.5t55.5 37.5q17 17 26.5 36.5t14.5 46.5t6.5 65.5t1.5 94.5z" />
    <glyph glyph-name="oe" unicode="&#xcf;" horiz-adv-x="861" 
d="M466 227q0 -81 37 -125.5t108 -44.5q43 0 71.5 13.5t57.5 42.5l49 -43q-19 -19 -37.5 -33t-39.5 -23.5t-46 -14.5t-57 -5q-124 0 -177 95q-23 -45 -67 -70t-100 -25q-45 0 -80 15t-61 41q-37 38 -48.5 88.5t-11.5 107.5t11.5 107.5t48.5 88.5q26 26 61 41t80 15
q56 0 100.5 -25t67.5 -70q51 95 163 95q96 0 149 -64t53 -174v-33h-332zM727 281q-2 30 -5 46t-11 36q-14 34 -45 54t-70 20t-70 -20t-45 -54q-4 -10 -6.5 -18.5t-4 -17.5t-2.5 -20t-2 -26h261v0zM394 246q0 21 -1 42t-5 41t-11.5 38t-21.5 31q-36 36 -90 36q-53 0 -89 -36
q-13 -13 -21 -31t-12.5 -38t-5.5 -41t-1 -42t1 -42t5.5 -41t12.5 -37.5t21 -31.5q36 -36 89 -36q54 0 90 36q14 14 21.5 31.5t11.5 37.5t5 41t1 42z" />
    <glyph glyph-name="endash" unicode="&#xd0;" 
d="M470 236h-418v67h418v-67v0z" />
    <glyph glyph-name="emdash" unicode="&#xd1;" horiz-adv-x="914" 
d="M838 236h-762v68h762v-68v0z" />
    <glyph glyph-name="quotedblleft" unicode="&#xd2;" horiz-adv-x="434" 
d="M346 628h-88v84l88 79v-163v0zM175 628h-87v84l87 79v-163v0z" />
    <glyph glyph-name="quotedblright" unicode="&#xd3;" horiz-adv-x="434" 
d="M346 628l-88 -79v163h88v-84v0zM175 628l-87 -79v163h87v-84v0z" />
    <glyph glyph-name="quoteleft" unicode="&#xd4;" horiz-adv-x="263" 
d="M175 628h-87v84l87 79v-163v0z" />
    <glyph glyph-name="quoteright" unicode="&#xd5;" horiz-adv-x="263" 
d="M175 628l-87 -79v163h87v-84v0z" />
    <glyph glyph-name="divide" unicode="&#xd6;" 
d="M304 404h-86v86h86v-86v0zM471 236h-420v67h420v-67v0zM304 49h-86v86h86v-86v0z" />
    <glyph glyph-name="lozenge" unicode="&#xd7;" horiz-adv-x="649" 
d="M582 352l-257 -364l-258 364l258 364l257 -364v0zM501 352l-176 253l-177 -253l177 -255l176 255v0z" />
    <glyph glyph-name="ydieresis" unicode="&#xd8;" horiz-adv-x="446" 
d="M212 -119q-14 -39 -35 -58q-20 -19 -45 -26.5t-51 -7.5h-31v64h22q19 0 31.5 3t21.5 10.5t15.5 19t12.5 28.5l35 96l-177 482h78l135 -395l134 395h78zM366 602h-72v89h72v-89v0zM154 602h-72v89h72v-89v0z" />
    <glyph glyph-name="Ydieresis" unicode="&#xd9;" horiz-adv-x="515" 
d="M506 712l-210 -418v-294h-76v294l-212 418h82l168 -341l166 341h82v0zM399 789h-72v89h72v-89v0zM187 789h-72v89h72v-89v0z" />
    <glyph glyph-name="fraction" unicode="&#xda;" horiz-adv-x="650" 
d="M576 260q0 -62 -14 -105.5t-47 -78.5q-38 -41 -86.5 -61.5t-103.5 -20.5q-53 0 -99.5 19t-82.5 55q-25 25 -38.5 52t-20 60.5t-7.5 76t-1 99.5t1 99.5t7.5 76t20 60.5t38.5 52q74 74 182 74q51 0 93.5 -15.5t74.5 -44t52.5 -67.5t28.5 -86h-76q-15 68 -60.5 106.5
t-112.5 38.5q-35 0 -67.5 -13.5t-55.5 -37.5q-17 -17 -27 -36.5t-15 -46.5t-6.5 -65.5t-1.5 -94.5t1.5 -94.5t6.5 -66t15 -47t27 -36.5q23 -24 55.5 -37t67.5 -13q39 0 74.5 15.5t60.5 45.5q22 26 31 56.5t9 72.5v54h-175v67h251v-113v0zM145 785v67h335v-67h-335z" />
    <glyph glyph-name="currency" unicode="&#xdb;" horiz-adv-x="543" 
d="M453 -15q0 -46 -14 -84.5t-40 -66.5t-64.5 -44t-86.5 -16q-28 0 -50 3.5t-41.5 11.5t-37.5 20.5t-38 30.5l47 46q14 -12 26 -21t25.5 -15.5t29.5 -9.5t37 -3q36 0 61.5 12t42 32t24 47.5t7.5 59.5v77q-30 -38 -64 -51t-74 -13q-38 0 -68.5 12t-50.5 32q-37 37 -48.5 91
t-11.5 114t11.5 114t48.5 91q20 20 51 31.5t69 11.5q41 0 74.5 -12.5t63.5 -51.5v58h71v-507v0zM381 250q0 35 -4 68t-17 58.5t-37 41.5t-64 16t-64.5 -16t-37.5 -41.5t-17 -58.5t-4 -68q0 -34 4 -67.5t17 -59t37.5 -41.5t64.5 -16t64 16t37 41.5t17 59t4 67.5zM123 632v57
h302v-57h-302z" />
    <glyph glyph-name="guilsinglleft" unicode="&#xdc;" horiz-adv-x="282" 
d="M179 0h-76v712h76v-712v0zM103 875h71v-89h-71v89v0z" />
    <glyph glyph-name="guilsinglright" unicode="&#xdd;" horiz-adv-x="253" 
d="M162 0h-72v492h72v-492v0z" />
    <glyph glyph-name="fi" unicode="&#xde;" horiz-adv-x="588" 
d="M324 -110h-70l-1 105q-67 4 -116.5 26t-94.5 67l52 52q44 -44 89 -61t105 -17q78 0 123 34.5t45 97.5q0 28 -8.5 51t-25.5 38t-35.5 21.5t-57.5 12.5l-83 13q-85 14 -131 54q-54 48 -54 133q0 45 16 82.5t45.5 63.5t71.5 40.5t95 14.5q68 0 117 -18.5t95 -59.5l-49 -49
q-33 30 -71 45.5t-95 15.5q-72 0 -111 -36t-39 -96q0 -54 32 -82q17 -14 42.5 -24t53.5 -15l78 -12q50 -7 79 -18.5t51 -31.5q60 -51 60 -141q0 -86 -56.5 -138.5t-151.5 -61.5v-106z" />
    <glyph glyph-name="fl" unicode="&#xdf;" horiz-adv-x="496" 
d="M283 -110h-69l-1 106q-51 3 -93 19t-77 50l48 48q29 -31 68 -44t85 -13q61 0 96 21.5t35 65.5q0 32 -19.5 50t-62.5 22l-81 7q-72 6 -109.5 38.5t-37.5 93.5q0 34 13.5 60.5t37.5 45t57.5 28.5t72.5 10q53 0 98.5 -13t78.5 -40l-47 -47q-26 20 -59.5 29.5t-71.5 9.5
q-54 0 -82 -21.5t-28 -59.5q0 -32 19.5 -50t66.5 -22l79 -7q32 -3 59 -11t46 -24t29.5 -39.5t10.5 -58.5q0 -63 -44 -101.5t-118 -46.5v-106z" />
    <glyph glyph-name="daggerdbl" unicode="&#xe0;" horiz-adv-x="605" 
d="M531 -16h-194v-204h-72v204h-191v64h191v397h-191v64h191v203h72v-203h194v-64h-194v-397h194v-64v0z" />
    <glyph glyph-name="periodcentered" unicode="&#xe1;" horiz-adv-x="270" 
d="M182 223h-94v94h94v-94v0z" />
    <glyph glyph-name="quotesinglbase" unicode="&#xe2;" horiz-adv-x="263" 
d="M175 0l-87 -79v163h87v-84v0z" />
    <glyph glyph-name="quotedblbase" unicode="&#xe3;" horiz-adv-x="434" 
d="M346 0l-88 -79v163h88v-84v0zM175 0l-87 -79v163h87v-84v0z" />
    <glyph glyph-name="perthousand" unicode="&#xe4;" horiz-adv-x="1179" 
d="M1115 128q0 -62 -38.5 -98.5t-96.5 -36.5q-59 0 -97 36.5t-38 98.5v105q0 62 38 98.5t97 36.5q58 0 96.5 -36.5t38.5 -98.5v-105v0zM1058 231q0 40 -18.5 63.5t-59.5 23.5q-42 0 -60 -23t-18 -64v-101q0 -41 18 -64t60 -23q41 0 59.5 23.5t18.5 63.5v101zM769 128
q0 -62 -38.5 -98.5t-96.5 -36.5q-59 0 -97 36.5t-38 98.5v105q0 62 38 98.5t97 36.5q58 0 96.5 -36.5t38.5 -98.5v-105v0zM712 231q0 40 -18.5 63.5t-59.5 23.5q-42 0 -60 -23t-18 -64v-101q0 -41 18 -64t60 -23q41 0 59.5 23.5t18.5 63.5v101zM280 0h-60l334 712h60z
M335 479q0 -61 -38.5 -97.5t-96.5 -36.5q-59 0 -97 36.5t-38 97.5v105q0 62 38 98.5t97 36.5q58 0 96.5 -36.5t38.5 -98.5v-105v0zM278 582q0 40 -18.5 63.5t-59.5 23.5q-42 0 -60 -23t-18 -64v-101q0 -41 18.5 -63.5t59.5 -22.5t59.5 23t18.5 63v101z" />
    <glyph glyph-name="Acircumflex" unicode="&#xe5;" horiz-adv-x="611" 
d="M599 0h-81l-57 161h-311l-57 -161h-81l262 712h64l261 -712v0zM439 227l-132 376l-134 -376h266v0zM461 781h-69l-90 104l-90 -104h-69l125 153h68l125 -153v0z" />
    <glyph glyph-name="Ecircumflex" unicode="&#xe6;" horiz-adv-x="600" 
d="M545 0h-442v712h442v-68h-366v-251h312v-68h-312v-257h366v-68v0zM472 781h-69l-90 104l-90 -104h-69l125 153h68l125 -153v0z" />
    <glyph glyph-name="Aacute" unicode="&#xe7;" horiz-adv-x="611" 
d="M599 0h-81l-57 161h-311l-57 -161h-81l262 712h64l261 -712v0zM439 227l-132 376l-134 -376h266v0zM427 934l-108 -153h-66l88 153h86v0z" />
    <glyph glyph-name="Edieresis" unicode="&#xe8;" horiz-adv-x="600" 
d="M545 0h-442v712h442v-68h-366v-251h312v-68h-312v-257h366v-68v0zM455 789h-72v89h72v-89v0zM243 789h-72v89h72v-89v0z" />
    <glyph glyph-name="Egrave" unicode="&#xe9;" horiz-adv-x="600" 
d="M545 0h-442v712h442v-68h-366v-251h312v-68h-312v-257h366v-68v0zM362 781h-66l-108 153h86l88 -153v0z" />
    <glyph glyph-name="Iacute" unicode="&#xea;" horiz-adv-x="282" 
d="M179 0h-76v712h76v-712v0zM254 934l-108 -153h-66l88 153h86v0z" />
    <glyph glyph-name="Icircumflex" unicode="&#xeb;" horiz-adv-x="282" 
d="M179 0h-76v712h76v-712v0zM299 781h-69l-90 104l-90 -104h-69l125 153h68l125 -153v0z" />
    <glyph glyph-name="Idieresis" unicode="&#xec;" horiz-adv-x="282" 
d="M179 0h-76v712h76v-712v0zM283 789h-72v89h72v-89v0zM71 789h-72v89h72v-89v0z" />
    <glyph glyph-name="Igrave" unicode="&#xed;" horiz-adv-x="282" 
d="M179 0h-76v712h76v-712v0zM206 781h-66l-108 153h86l88 -153v0z" />
    <glyph glyph-name="Oacute" unicode="&#xee;" horiz-adv-x="650" 
d="M574 356q0 -57 -1 -99.5t-7.5 -76t-20 -60.5t-38.5 -52q-36 -36 -82 -55t-100 -19q-108 0 -182 74q-25 25 -38.5 52t-20 60.5t-7.5 76t-1 99.5t1 99.5t7.5 76t20 60.5t38.5 52q74 74 182 74t182 -74q25 -25 38.5 -52t20 -60.5t7.5 -76t1 -99.5zM498 356q0 56 -1.5 94.5
t-6.5 65.5t-15 46.5t-27 36.5q-23 24 -55.5 37.5t-67.5 13.5t-67.5 -13.5t-55.5 -37.5q-17 -17 -27 -36.5t-15 -46.5t-6.5 -65.5t-1.5 -94.5t1.5 -94.5t6.5 -65.5t15 -46.5t27 -36.5q23 -24 55.5 -37.5t67.5 -13.5t67.5 13.5t55.5 37.5q17 17 27 36.5t15 46.5t6.5 65.5
t1.5 94.5zM450 934l-108 -153h-66l88 153h86v0z" />
    <glyph glyph-name="Ocircumflex" unicode="&#xef;" horiz-adv-x="650" 
d="M574 356q0 -57 -1 -99.5t-7.5 -76t-20 -60.5t-38.5 -52q-36 -36 -82 -55t-100 -19q-108 0 -182 74q-25 25 -38.5 52t-20 60.5t-7.5 76t-1 99.5t1 99.5t7.5 76t20 60.5t38.5 52q74 74 182 74t182 -74q25 -25 38.5 -52t20 -60.5t7.5 -76t1 -99.5zM498 356q0 56 -1.5 94.5
t-6.5 65.5t-15 46.5t-27 36.5q-23 24 -55.5 37.5t-67.5 13.5t-67.5 -13.5t-55.5 -37.5q-17 -17 -27 -36.5t-15 -46.5t-6.5 -65.5t-1.5 -94.5t1.5 -94.5t6.5 -65.5t15 -46.5t27 -36.5q23 -24 55.5 -37.5t67.5 -13.5t67.5 13.5t55.5 37.5q17 17 27 36.5t15 46.5t6.5 65.5
t1.5 94.5zM484 781h-69l-90 104l-90 -104h-69l125 153h68l125 -153v0z" />
    <glyph glyph-name="Ograve" unicode="&#xf1;" horiz-adv-x="650" 
d="M574 356q0 -57 -1 -99.5t-7.5 -76t-20 -60.5t-38.5 -52q-36 -36 -82 -55t-100 -19q-108 0 -182 74q-25 25 -38.5 52t-20 60.5t-7.5 76t-1 99.5t1 99.5t7.5 76t20 60.5t38.5 52q74 74 182 74t182 -74q25 -25 38.5 -52t20 -60.5t7.5 -76t1 -99.5zM498 356q0 56 -1.5 94.5
t-6.5 65.5t-15 46.5t-27 36.5q-23 24 -55.5 37.5t-67.5 13.5t-67.5 -13.5t-55.5 -37.5q-17 -17 -27 -36.5t-15 -46.5t-6.5 -65.5t-1.5 -94.5t1.5 -94.5t6.5 -65.5t15 -46.5t27 -36.5q23 -24 55.5 -37.5t67.5 -13.5t67.5 13.5t55.5 37.5q17 17 27 36.5t15 46.5t6.5 65.5
t1.5 94.5zM374 781h-66l-108 153h86l88 -153v0z" />
    <glyph glyph-name="Uacute" unicode="&#xf2;" horiz-adv-x="682" 
d="M590 235q0 -53 -18.5 -97.5t-52 -76.5t-79 -49.5t-99.5 -17.5t-99.5 17.5t-78.5 49.5t-51.5 76.5t-18.5 97.5v477h76v-471q0 -40 12.5 -73.5t35 -56.5t54 -36t70.5 -13t71 13t54.5 36t35 56.5t12.5 73.5v471h76v-477v0zM466 934l-108 -153h-66l88 153h86v0z" />
    <glyph glyph-name="Ucircumflex" unicode="&#xf3;" horiz-adv-x="682" 
d="M590 235q0 -53 -18.5 -97.5t-52 -76.5t-79 -49.5t-99.5 -17.5t-99.5 17.5t-78.5 49.5t-51.5 76.5t-18.5 97.5v477h76v-471q0 -40 12.5 -73.5t35 -56.5t54 -36t70.5 -13t71 13t54.5 36t35 56.5t12.5 73.5v471h76v-477v0zM500 781h-69l-90 104l-90 -104h-69l125 153h68
l125 -153v0z" />
    <glyph glyph-name="Ugrave" unicode="&#xf4;" horiz-adv-x="682" 
d="M590 235q0 -53 -18.5 -97.5t-52 -76.5t-79 -49.5t-99.5 -17.5t-99.5 17.5t-78.5 49.5t-51.5 76.5t-18.5 97.5v477h76v-471q0 -40 12.5 -73.5t35 -56.5t54 -36t70.5 -13t71 13t54.5 36t35 56.5t12.5 73.5v471h76v-477v0zM390 781h-66l-108 153h86l88 -153v0z" />
    <glyph glyph-name="dotlessi" unicode="&#xf5;" horiz-adv-x="253" 
d="M162 0h-72v492h72v-492v0z" />
    <glyph glyph-name="circumflex" unicode="&#xf6;" horiz-adv-x="500" 
d="M409 594h-69l-90 104l-90 -104h-69l125 153h68l125 -153v0z" />
    <glyph glyph-name="tilde" unicode="&#xf7;" horiz-adv-x="500" 
d="M407 659q-34 -34 -56 -42.5t-39 -8.5q-21 0 -37 6t-34 17q-14 8 -27.5 14.5t-28.5 6.5q-6 0 -11.5 -1t-12.5 -4t-15.5 -9.5t-19.5 -17.5l-37 36q17 17 30.5 27t24.5 15.5t21 7t19 1.5q22 0 37 -6.5t34 -17.5q16 -10 28.5 -15t27.5 -5q11 0 24 5t35 27l37 -36v0z" />
    <glyph glyph-name="macron" unicode="&#xf8;" horiz-adv-x="500" 
d="M401 614h-302v57h302v-57v0z" />
    <glyph glyph-name="breve" unicode="&#xf9;" horiz-adv-x="500" 
d="M415 727q-12 -139 -163 -139q-155 0 -167 139h58q5 -39 34 -60.5t75 -21.5t74.5 21.5t33.5 60.5h55v0z" />
    <glyph glyph-name="dotaccent" unicode="&#xfa;" horiz-adv-x="500" 
d="M290 634h-80v74h80v-74v0z" />
    <glyph glyph-name="ring" unicode="&#xfb;" horiz-adv-x="500" 
d="M368 687q0 -24 -9.5 -46t-25.5 -38t-37.5 -25.5t-45.5 -9.5t-45.5 9.5t-37.5 25.5t-25.5 38t-9.5 46t9.5 45.5t25.5 37.5t37.5 25.5t45.5 9.5t45.5 -9t37.5 -25t25.5 -37.5t9.5 -46.5zM319 687q0 29 -20 48.5t-49 19.5t-49 -19.5t-20 -48.5t20 -49t49 -20t49 20t20 49z
" />
    <glyph glyph-name="cedilla" unicode="&#xfc;" horiz-adv-x="500" 
d="M313 -67l-59 -149h-79l71 149h67v0z" />
    <glyph glyph-name="hungarumlaut" unicode="&#xfd;" horiz-adv-x="500" 
d="M447 747l-109 -153h-65l89 153h85v0zM284 747l-108 -153h-66l89 153h85v0z" />
    <glyph glyph-name="ogonek" unicode="&#xfe;" horiz-adv-x="500" 
d="M323 -216h-78l-59 149h66l71 -149v0z" />
    <glyph glyph-name="caron" unicode="&#xff;" horiz-adv-x="500" 
d="M409 747l-125 -153h-68l-125 153h69l90 -105l90 105h69v0z" />
    <glyph glyph-name="Eth" horiz-adv-x="687" 
d="M611 356q0 -61 -1.5 -100t-6 -66t-13.5 -46t-23 -39q-32 -45 -84.5 -75t-126.5 -30h-239v330h-78v59h78v323h245q135 0 205 -107q15 -24 24 -44t13.5 -46.5t5.5 -63.5t1 -95zM535 352q0 50 -1 84.5t-4.5 59t-10.5 42t-20 35.5q-29 39 -64.5 55.5t-86.5 16.5h-154v-256
h161v-59h-161v-263h154q106 0 156 74q11 17 17 32.5t9 38t4 55.5t1 85z" />
  </font>
</defs>
</svg>
